<?xml version="1.0" encoding="utf-8" standalone="no"?>
<!DOCTYPE svg PUBLIC "-//W3C//DTD SVG 1.1//EN"
  "http://www.w3.org/Graphics/SVG/1.1/DTD/svg11.dtd">
<!-- Created with matplotlib (http://matplotlib.org/) -->
<svg height="167pt" version="1.1" viewBox="0 0 163 167" width="163pt" xmlns="http://www.w3.org/2000/svg" xmlns:xlink="http://www.w3.org/1999/xlink">
 <defs>
  <style type="text/css">
*{stroke-linecap:butt;stroke-linejoin:round;stroke-miterlimit:100000;}
  </style>
 </defs>
 <g id="figure_1">
  <g id="patch_1">
   <path d="M 0 167.60625 
L 163.666406 167.60625 
L 163.666406 0 
L 0 0 
z
" style="fill:#ffffff;"/>
  </g>
  <g id="axes_1">
   <g id="patch_2">
    <path d="M 40.381719 129.201094 
L 150.905469 129.201094 
L 150.905469 11.772656 
L 40.381719 11.772656 
z
" style="fill:#ffffff;"/>
   </g>
   <g id="matplotlib.axis_1">
    <g id="xtick_1">
     <g id="line2d_1">
      <path clip-path="url(#p93fbd4419a)" d="M 40.381719 129.201094 
L 40.381719 11.772656 
" style="fill:none;stroke:#cccccc;stroke-linecap:round;"/>
     </g>
     <g id="line2d_2">
      <defs>
       <path d="M 0 0 
L 0 0 
" id="me6c4626fd7" style="stroke:#262626;"/>
      </defs>
      <g>
       <use style="fill:#262626;stroke:#262626;" x="40.38171875" xlink:href="#me6c4626fd7" y="129.20109375"/>
      </g>
     </g>
     <g id="text_1">
      <!-- 12 -->
      <defs>
       <path d="M 37.25 0 
L 28.46875 0 
L 28.46875 56 
Q 25.296875 52.984375 20.140625 49.953125 
Q 14.984375 46.921875 10.890625 45.40625 
L 10.890625 53.90625 
Q 18.265625 57.375 23.78125 62.296875 
Q 29.296875 67.234375 31.59375 71.875 
L 37.25 71.875 
z
" id="ArialMT-31"/>
       <path d="M 50.34375 8.453125 
L 50.34375 0 
L 3.03125 0 
Q 2.9375 3.171875 4.046875 6.109375 
Q 5.859375 10.9375 9.828125 15.625 
Q 13.8125 20.3125 21.34375 26.46875 
Q 33.015625 36.03125 37.109375 41.625 
Q 41.21875 47.21875 41.21875 52.203125 
Q 41.21875 57.421875 37.46875 61 
Q 33.734375 64.59375 27.734375 64.59375 
Q 21.390625 64.59375 17.578125 60.78125 
Q 13.765625 56.984375 13.71875 50.25 
L 4.6875 51.171875 
Q 5.609375 61.28125 11.65625 66.578125 
Q 17.71875 71.875 27.9375 71.875 
Q 38.234375 71.875 44.234375 66.15625 
Q 50.25 60.453125 50.25 52 
Q 50.25 47.703125 48.484375 43.546875 
Q 46.734375 39.40625 42.65625 34.8125 
Q 38.578125 30.21875 29.109375 22.21875 
Q 21.1875 15.578125 18.9375 13.203125 
Q 16.703125 10.84375 15.234375 8.453125 
z
" id="ArialMT-32"/>
      </defs>
      <g style="fill:#262626;" transform="translate(34.82078125 143.35890625)scale(0.1 -0.1)">
       <use xlink:href="#ArialMT-31"/>
       <use x="55.615234375" xlink:href="#ArialMT-32"/>
      </g>
     </g>
    </g>
    <g id="xtick_2">
     <g id="line2d_3">
      <path clip-path="url(#p93fbd4419a)" d="M 58.802344 129.201094 
L 58.802344 11.772656 
" style="fill:none;stroke:#cccccc;stroke-linecap:round;"/>
     </g>
     <g id="line2d_4">
      <g>
       <use style="fill:#262626;stroke:#262626;" x="58.80234375" xlink:href="#me6c4626fd7" y="129.20109375"/>
      </g>
     </g>
     <g id="text_2">
      <!-- 14 -->
      <defs>
       <path d="M 32.328125 0 
L 32.328125 17.140625 
L 1.265625 17.140625 
L 1.265625 25.203125 
L 33.9375 71.578125 
L 41.109375 71.578125 
L 41.109375 25.203125 
L 50.78125 25.203125 
L 50.78125 17.140625 
L 41.109375 17.140625 
L 41.109375 0 
z
M 32.328125 25.203125 
L 32.328125 57.46875 
L 9.90625 25.203125 
z
" id="ArialMT-34"/>
      </defs>
      <g style="fill:#262626;" transform="translate(53.24140625 143.35890625)scale(0.1 -0.1)">
       <use xlink:href="#ArialMT-31"/>
       <use x="55.615234375" xlink:href="#ArialMT-34"/>
      </g>
     </g>
    </g>
    <g id="xtick_3">
     <g id="line2d_5">
      <path clip-path="url(#p93fbd4419a)" d="M 77.222969 129.201094 
L 77.222969 11.772656 
" style="fill:none;stroke:#cccccc;stroke-linecap:round;"/>
     </g>
     <g id="line2d_6">
      <g>
       <use style="fill:#262626;stroke:#262626;" x="77.22296875" xlink:href="#me6c4626fd7" y="129.20109375"/>
      </g>
     </g>
     <g id="text_3">
      <!-- 16 -->
      <defs>
       <path d="M 49.75 54.046875 
L 41.015625 53.375 
Q 39.84375 58.546875 37.703125 60.890625 
Q 34.125 64.65625 28.90625 64.65625 
Q 24.703125 64.65625 21.53125 62.3125 
Q 17.390625 59.28125 14.984375 53.46875 
Q 12.59375 47.65625 12.5 36.921875 
Q 15.671875 41.75 20.265625 44.09375 
Q 24.859375 46.4375 29.890625 46.4375 
Q 38.671875 46.4375 44.84375 39.96875 
Q 51.03125 33.5 51.03125 23.25 
Q 51.03125 16.5 48.125 10.71875 
Q 45.21875 4.9375 40.140625 1.859375 
Q 35.0625 -1.21875 28.609375 -1.21875 
Q 17.625 -1.21875 10.6875 6.859375 
Q 3.765625 14.9375 3.765625 33.5 
Q 3.765625 54.25 11.421875 63.671875 
Q 18.109375 71.875 29.4375 71.875 
Q 37.890625 71.875 43.28125 67.140625 
Q 48.6875 62.40625 49.75 54.046875 
M 13.875 23.1875 
Q 13.875 18.65625 15.796875 14.5 
Q 17.71875 10.359375 21.1875 8.171875 
Q 24.65625 6 28.46875 6 
Q 34.03125 6 38.03125 10.484375 
Q 42.046875 14.984375 42.046875 22.703125 
Q 42.046875 30.125 38.078125 34.390625 
Q 34.125 38.671875 28.125 38.671875 
Q 22.171875 38.671875 18.015625 34.390625 
Q 13.875 30.125 13.875 23.1875 
" id="ArialMT-36"/>
      </defs>
      <g style="fill:#262626;" transform="translate(71.66203125 143.35890625)scale(0.1 -0.1)">
       <use xlink:href="#ArialMT-31"/>
       <use x="55.615234375" xlink:href="#ArialMT-36"/>
      </g>
     </g>
    </g>
    <g id="xtick_4">
     <g id="line2d_7">
      <path clip-path="url(#p93fbd4419a)" d="M 95.643594 129.201094 
L 95.643594 11.772656 
" style="fill:none;stroke:#cccccc;stroke-linecap:round;"/>
     </g>
     <g id="line2d_8">
      <g>
       <use style="fill:#262626;stroke:#262626;" x="95.64359375" xlink:href="#me6c4626fd7" y="129.20109375"/>
      </g>
     </g>
     <g id="text_4">
      <!-- 18 -->
      <defs>
       <path d="M 17.671875 38.8125 
Q 12.203125 40.828125 9.5625 44.53125 
Q 6.9375 48.25 6.9375 53.421875 
Q 6.9375 61.234375 12.546875 66.546875 
Q 18.171875 71.875 27.484375 71.875 
Q 36.859375 71.875 42.578125 66.421875 
Q 48.296875 60.984375 48.296875 53.171875 
Q 48.296875 48.1875 45.671875 44.5 
Q 43.0625 40.828125 37.75 38.8125 
Q 44.34375 36.671875 47.78125 31.875 
Q 51.21875 27.09375 51.21875 20.453125 
Q 51.21875 11.28125 44.71875 5.03125 
Q 38.234375 -1.21875 27.640625 -1.21875 
Q 17.046875 -1.21875 10.546875 5.046875 
Q 4.046875 11.328125 4.046875 20.703125 
Q 4.046875 27.6875 7.59375 32.390625 
Q 11.140625 37.109375 17.671875 38.8125 
M 15.921875 53.71875 
Q 15.921875 48.640625 19.1875 45.40625 
Q 22.46875 42.1875 27.6875 42.1875 
Q 32.765625 42.1875 36.015625 45.375 
Q 39.265625 48.578125 39.265625 53.21875 
Q 39.265625 58.0625 35.90625 61.359375 
Q 32.5625 64.65625 27.59375 64.65625 
Q 22.5625 64.65625 19.234375 61.421875 
Q 15.921875 58.203125 15.921875 53.71875 
M 13.09375 20.65625 
Q 13.09375 16.890625 14.875 13.375 
Q 16.65625 9.859375 20.171875 7.921875 
Q 23.6875 6 27.734375 6 
Q 34.03125 6 38.125 10.046875 
Q 42.234375 14.109375 42.234375 20.359375 
Q 42.234375 26.703125 38.015625 30.859375 
Q 33.796875 35.015625 27.4375 35.015625 
Q 21.234375 35.015625 17.15625 30.90625 
Q 13.09375 26.8125 13.09375 20.65625 
" id="ArialMT-38"/>
      </defs>
      <g style="fill:#262626;" transform="translate(90.08265625 143.35890625)scale(0.1 -0.1)">
       <use xlink:href="#ArialMT-31"/>
       <use x="55.615234375" xlink:href="#ArialMT-38"/>
      </g>
     </g>
    </g>
    <g id="xtick_5">
     <g id="line2d_9">
      <path clip-path="url(#p93fbd4419a)" d="M 114.064219 129.201094 
L 114.064219 11.772656 
" style="fill:none;stroke:#cccccc;stroke-linecap:round;"/>
     </g>
     <g id="line2d_10">
      <g>
       <use style="fill:#262626;stroke:#262626;" x="114.06421875" xlink:href="#me6c4626fd7" y="129.20109375"/>
      </g>
     </g>
     <g id="text_5">
      <!-- 20 -->
      <defs>
       <path d="M 4.15625 35.296875 
Q 4.15625 48 6.765625 55.734375 
Q 9.375 63.484375 14.515625 67.671875 
Q 19.671875 71.875 27.484375 71.875 
Q 33.25 71.875 37.59375 69.546875 
Q 41.9375 67.234375 44.765625 62.859375 
Q 47.609375 58.5 49.21875 52.21875 
Q 50.828125 45.953125 50.828125 35.296875 
Q 50.828125 22.703125 48.234375 14.96875 
Q 45.65625 7.234375 40.5 3 
Q 35.359375 -1.21875 27.484375 -1.21875 
Q 17.140625 -1.21875 11.234375 6.203125 
Q 4.15625 15.140625 4.15625 35.296875 
M 13.1875 35.296875 
Q 13.1875 17.671875 17.3125 11.828125 
Q 21.4375 6 27.484375 6 
Q 33.546875 6 37.671875 11.859375 
Q 41.796875 17.71875 41.796875 35.296875 
Q 41.796875 52.984375 37.671875 58.78125 
Q 33.546875 64.59375 27.390625 64.59375 
Q 21.34375 64.59375 17.71875 59.46875 
Q 13.1875 52.9375 13.1875 35.296875 
" id="ArialMT-30"/>
      </defs>
      <g style="fill:#262626;" transform="translate(108.50328125 143.35890625)scale(0.1 -0.1)">
       <use xlink:href="#ArialMT-32"/>
       <use x="55.615234375" xlink:href="#ArialMT-30"/>
      </g>
     </g>
    </g>
    <g id="xtick_6">
     <g id="line2d_11">
      <path clip-path="url(#p93fbd4419a)" d="M 132.484844 129.201094 
L 132.484844 11.772656 
" style="fill:none;stroke:#cccccc;stroke-linecap:round;"/>
     </g>
     <g id="line2d_12">
      <g>
       <use style="fill:#262626;stroke:#262626;" x="132.48484375" xlink:href="#me6c4626fd7" y="129.20109375"/>
      </g>
     </g>
     <g id="text_6">
      <!-- 22 -->
      <g style="fill:#262626;" transform="translate(126.92390625 143.35890625)scale(0.1 -0.1)">
       <use xlink:href="#ArialMT-32"/>
       <use x="55.615234375" xlink:href="#ArialMT-32"/>
      </g>
     </g>
    </g>
    <g id="xtick_7">
     <g id="line2d_13">
      <path clip-path="url(#p93fbd4419a)" d="M 150.905469 129.201094 
L 150.905469 11.772656 
" style="fill:none;stroke:#cccccc;stroke-linecap:round;"/>
     </g>
     <g id="line2d_14">
      <g>
       <use style="fill:#262626;stroke:#262626;" x="150.90546875" xlink:href="#me6c4626fd7" y="129.20109375"/>
      </g>
     </g>
     <g id="text_7">
      <!-- 24 -->
      <g style="fill:#262626;" transform="translate(145.34453125 143.35890625)scale(0.1 -0.1)">
       <use xlink:href="#ArialMT-32"/>
       <use x="55.615234375" xlink:href="#ArialMT-34"/>
      </g>
     </g>
    </g>
    <g id="text_8">
     <!-- pupil_teacher_ratio -->
     <defs>
      <path d="M 40.4375 19 
L 49.078125 17.875 
Q 47.65625 8.9375 41.8125 3.875 
Q 35.984375 -1.171875 27.484375 -1.171875 
Q 16.84375 -1.171875 10.375 5.78125 
Q 3.90625 12.75 3.90625 25.734375 
Q 3.90625 34.125 6.6875 40.421875 
Q 9.46875 46.734375 15.15625 49.875 
Q 20.84375 53.03125 27.546875 53.03125 
Q 35.984375 53.03125 41.359375 48.75 
Q 46.734375 44.484375 48.25 36.625 
L 39.703125 35.296875 
Q 38.484375 40.53125 35.375 43.15625 
Q 32.28125 45.796875 27.875 45.796875 
Q 21.234375 45.796875 17.078125 41.03125 
Q 12.9375 36.28125 12.9375 25.984375 
Q 12.9375 15.53125 16.9375 10.796875 
Q 20.953125 6.0625 27.390625 6.0625 
Q 32.5625 6.0625 36.03125 9.234375 
Q 39.5 12.40625 40.4375 19 
" id="ArialMT-63"/>
      <path d="M 40.4375 6.390625 
Q 35.546875 2.25 31.03125 0.53125 
Q 26.515625 -1.171875 21.34375 -1.171875 
Q 12.796875 -1.171875 8.203125 3 
Q 3.609375 7.171875 3.609375 13.671875 
Q 3.609375 17.484375 5.34375 20.625 
Q 7.078125 23.78125 9.890625 25.6875 
Q 12.703125 27.59375 16.21875 28.5625 
Q 18.796875 29.25 24.03125 29.890625 
Q 34.671875 31.15625 39.703125 32.90625 
Q 39.75 34.71875 39.75 35.203125 
Q 39.75 40.578125 37.25 42.78125 
Q 33.890625 45.75 27.25 45.75 
Q 21.046875 45.75 18.09375 43.578125 
Q 15.140625 41.40625 13.71875 35.890625 
L 5.125 37.0625 
Q 6.296875 42.578125 8.984375 45.96875 
Q 11.671875 49.359375 16.75 51.1875 
Q 21.828125 53.03125 28.515625 53.03125 
Q 35.15625 53.03125 39.296875 51.46875 
Q 43.453125 49.90625 45.40625 47.53125 
Q 47.359375 45.171875 48.140625 41.546875 
Q 48.578125 39.3125 48.578125 33.453125 
L 48.578125 21.734375 
Q 48.578125 9.46875 49.140625 6.21875 
Q 49.703125 2.984375 51.375 0 
L 42.1875 0 
Q 40.828125 2.734375 40.4375 6.390625 
M 39.703125 26.03125 
Q 34.90625 24.078125 25.34375 22.703125 
Q 19.921875 21.921875 17.671875 20.9375 
Q 15.4375 19.96875 14.203125 18.09375 
Q 12.984375 16.21875 12.984375 13.921875 
Q 12.984375 10.40625 15.640625 8.0625 
Q 18.3125 5.71875 23.4375 5.71875 
Q 28.515625 5.71875 32.46875 7.9375 
Q 36.421875 10.15625 38.28125 14.015625 
Q 39.703125 17 39.703125 22.796875 
z
" id="ArialMT-61"/>
      <path d="M 42.09375 16.703125 
L 51.171875 15.578125 
Q 49.03125 7.625 43.21875 3.21875 
Q 37.40625 -1.171875 28.375 -1.171875 
Q 17 -1.171875 10.328125 5.828125 
Q 3.65625 12.84375 3.65625 25.484375 
Q 3.65625 38.578125 10.390625 45.796875 
Q 17.140625 53.03125 27.875 53.03125 
Q 38.28125 53.03125 44.875 45.953125 
Q 51.46875 38.875 51.46875 26.03125 
Q 51.46875 25.25 51.421875 23.6875 
L 12.75 23.6875 
Q 13.234375 15.140625 17.578125 10.59375 
Q 21.921875 6.0625 28.421875 6.0625 
Q 33.25 6.0625 36.671875 8.59375 
Q 40.09375 11.140625 42.09375 16.703125 
M 13.234375 30.90625 
L 42.1875 30.90625 
Q 41.609375 37.453125 38.875 40.71875 
Q 34.671875 45.796875 27.984375 45.796875 
Q 21.921875 45.796875 17.796875 41.75 
Q 13.671875 37.703125 13.234375 30.90625 
" id="ArialMT-65"/>
      <path d="M 25.78125 7.859375 
L 27.046875 0.09375 
Q 23.34375 -0.6875 20.40625 -0.6875 
Q 15.625 -0.6875 12.984375 0.828125 
Q 10.359375 2.34375 9.28125 4.8125 
Q 8.203125 7.28125 8.203125 15.1875 
L 8.203125 45.015625 
L 1.765625 45.015625 
L 1.765625 51.859375 
L 8.203125 51.859375 
L 8.203125 64.703125 
L 16.9375 69.96875 
L 16.9375 51.859375 
L 25.78125 51.859375 
L 25.78125 45.015625 
L 16.9375 45.015625 
L 16.9375 14.703125 
Q 16.9375 10.9375 17.40625 9.859375 
Q 17.875 8.796875 18.921875 8.15625 
Q 19.96875 7.515625 21.921875 7.515625 
Q 23.390625 7.515625 25.78125 7.859375 
" id="ArialMT-74"/>
      <path d="M 40.578125 0 
L 40.578125 7.625 
Q 34.515625 -1.171875 24.125 -1.171875 
Q 19.53125 -1.171875 15.546875 0.578125 
Q 11.578125 2.34375 9.640625 5 
Q 7.71875 7.671875 6.9375 11.53125 
Q 6.390625 14.109375 6.390625 19.734375 
L 6.390625 51.859375 
L 15.1875 51.859375 
L 15.1875 23.09375 
Q 15.1875 16.21875 15.71875 13.8125 
Q 16.546875 10.359375 19.234375 8.375 
Q 21.921875 6.390625 25.875 6.390625 
Q 29.828125 6.390625 33.296875 8.421875 
Q 36.765625 10.453125 38.203125 13.9375 
Q 39.65625 17.4375 39.65625 24.078125 
L 39.65625 51.859375 
L 48.4375 51.859375 
L 48.4375 0 
z
" id="ArialMT-75"/>
      <path d="M 6.640625 61.46875 
L 6.640625 71.578125 
L 15.4375 71.578125 
L 15.4375 61.46875 
z
M 6.640625 0 
L 6.640625 51.859375 
L 15.4375 51.859375 
L 15.4375 0 
z
" id="ArialMT-69"/>
      <path d="M 6.59375 0 
L 6.59375 71.578125 
L 15.375 71.578125 
L 15.375 45.90625 
Q 21.53125 53.03125 30.90625 53.03125 
Q 36.671875 53.03125 40.921875 50.75 
Q 45.171875 48.484375 47 44.484375 
Q 48.828125 40.484375 48.828125 32.859375 
L 48.828125 0 
L 40.046875 0 
L 40.046875 32.859375 
Q 40.046875 39.453125 37.1875 42.453125 
Q 34.328125 45.453125 29.109375 45.453125 
Q 25.203125 45.453125 21.75 43.421875 
Q 18.3125 41.40625 16.84375 37.9375 
Q 15.375 34.46875 15.375 28.375 
L 15.375 0 
z
" id="ArialMT-68"/>
      <path d="M 6.59375 -19.875 
L 6.59375 51.859375 
L 14.59375 51.859375 
L 14.59375 45.125 
Q 17.4375 49.078125 21 51.046875 
Q 24.5625 53.03125 29.640625 53.03125 
Q 36.28125 53.03125 41.359375 49.609375 
Q 46.4375 46.1875 49.015625 39.953125 
Q 51.609375 33.734375 51.609375 26.3125 
Q 51.609375 18.359375 48.75 11.984375 
Q 45.90625 5.609375 40.453125 2.21875 
Q 35.015625 -1.171875 29 -1.171875 
Q 24.609375 -1.171875 21.109375 0.6875 
Q 17.625 2.546875 15.375 5.375 
L 15.375 -19.875 
z
M 14.546875 25.640625 
Q 14.546875 15.625 18.59375 10.84375 
Q 22.65625 6.0625 28.421875 6.0625 
Q 34.28125 6.0625 38.453125 11.015625 
Q 42.625 15.96875 42.625 26.375 
Q 42.625 36.28125 38.546875 41.203125 
Q 34.46875 46.140625 28.8125 46.140625 
Q 23.1875 46.140625 18.859375 40.890625 
Q 14.546875 35.640625 14.546875 25.640625 
" id="ArialMT-70"/>
      <path d="M 6.5 0 
L 6.5 51.859375 
L 14.40625 51.859375 
L 14.40625 44 
Q 17.4375 49.515625 20 51.265625 
Q 22.5625 53.03125 25.640625 53.03125 
Q 30.078125 53.03125 34.671875 50.203125 
L 31.640625 42.046875 
Q 28.421875 43.953125 25.203125 43.953125 
Q 22.3125 43.953125 20.015625 42.21875 
Q 17.71875 40.484375 16.75 37.40625 
Q 15.28125 32.71875 15.28125 27.15625 
L 15.28125 0 
z
" id="ArialMT-72"/>
      <path d="M 6.390625 0 
L 6.390625 71.578125 
L 15.1875 71.578125 
L 15.1875 0 
z
" id="ArialMT-6c"/>
      <path d="M 3.328125 25.921875 
Q 3.328125 40.328125 11.328125 47.265625 
Q 18.015625 53.03125 27.640625 53.03125 
Q 38.328125 53.03125 45.109375 46.015625 
Q 51.90625 39.015625 51.90625 26.65625 
Q 51.90625 16.65625 48.90625 10.90625 
Q 45.90625 5.171875 40.15625 2 
Q 34.421875 -1.171875 27.640625 -1.171875 
Q 16.75 -1.171875 10.03125 5.8125 
Q 3.328125 12.796875 3.328125 25.921875 
M 12.359375 25.921875 
Q 12.359375 15.96875 16.703125 11.015625 
Q 21.046875 6.0625 27.640625 6.0625 
Q 34.1875 6.0625 38.53125 11.03125 
Q 42.875 16.015625 42.875 26.21875 
Q 42.875 35.84375 38.5 40.796875 
Q 34.125 45.75 27.640625 45.75 
Q 21.046875 45.75 16.703125 40.8125 
Q 12.359375 35.890625 12.359375 25.921875 
" id="ArialMT-6f"/>
      <path d="M -1.515625 -19.875 
L -1.515625 -13.53125 
L 56.734375 -13.53125 
L 56.734375 -19.875 
z
" id="ArialMT-5f"/>
     </defs>
     <g style="fill:#262626;" transform="translate(48.865234375 158.22)scale(0.11 -0.11)">
      <use xlink:href="#ArialMT-70"/>
      <use x="55.615234375" xlink:href="#ArialMT-75"/>
      <use x="111.23046875" xlink:href="#ArialMT-70"/>
      <use x="166.845703125" xlink:href="#ArialMT-69"/>
      <use x="189.0625" xlink:href="#ArialMT-6c"/>
      <use x="211.279296875" xlink:href="#ArialMT-5f"/>
      <use x="266.89453125" xlink:href="#ArialMT-74"/>
      <use x="294.677734375" xlink:href="#ArialMT-65"/>
      <use x="350.29296875" xlink:href="#ArialMT-61"/>
      <use x="405.908203125" xlink:href="#ArialMT-63"/>
      <use x="455.908203125" xlink:href="#ArialMT-68"/>
      <use x="511.5234375" xlink:href="#ArialMT-65"/>
      <use x="567.138671875" xlink:href="#ArialMT-72"/>
      <use x="600.439453125" xlink:href="#ArialMT-5f"/>
      <use x="656.0546875" xlink:href="#ArialMT-72"/>
      <use x="689.35546875" xlink:href="#ArialMT-61"/>
      <use x="744.970703125" xlink:href="#ArialMT-74"/>
      <use x="772.75390625" xlink:href="#ArialMT-69"/>
      <use x="794.970703125" xlink:href="#ArialMT-6f"/>
     </g>
    </g>
   </g>
   <g id="matplotlib.axis_2">
    <g id="ytick_1">
     <g id="line2d_15">
      <path clip-path="url(#p93fbd4419a)" d="M 40.381719 129.201094 
L 150.905469 129.201094 
" style="fill:none;stroke:#cccccc;stroke-linecap:round;"/>
     </g>
     <g id="line2d_16">
      <g>
       <use style="fill:#262626;stroke:#262626;" x="40.38171875" xlink:href="#me6c4626fd7" y="129.20109375"/>
      </g>
     </g>
     <g id="text_9">
      <!-- 0 -->
      <g style="fill:#262626;" transform="translate(27.82078125 131.78625)scale(0.1 -0.1)">
       <use xlink:href="#ArialMT-30"/>
      </g>
     </g>
    </g>
    <g id="ytick_2">
     <g id="line2d_17">
      <path clip-path="url(#p93fbd4419a)" d="M 40.381719 109.629687 
L 150.905469 109.629687 
" style="fill:none;stroke:#cccccc;stroke-linecap:round;"/>
     </g>
     <g id="line2d_18">
      <g>
       <use style="fill:#262626;stroke:#262626;" x="40.38171875" xlink:href="#me6c4626fd7" y="109.6296875"/>
      </g>
     </g>
     <g id="text_10">
      <!-- 10 -->
      <g style="fill:#262626;" transform="translate(22.25984375 112.21484375)scale(0.1 -0.1)">
       <use xlink:href="#ArialMT-31"/>
       <use x="55.615234375" xlink:href="#ArialMT-30"/>
      </g>
     </g>
    </g>
    <g id="ytick_3">
     <g id="line2d_19">
      <path clip-path="url(#p93fbd4419a)" d="M 40.381719 90.058281 
L 150.905469 90.058281 
" style="fill:none;stroke:#cccccc;stroke-linecap:round;"/>
     </g>
     <g id="line2d_20">
      <g>
       <use style="fill:#262626;stroke:#262626;" x="40.38171875" xlink:href="#me6c4626fd7" y="90.05828125"/>
      </g>
     </g>
     <g id="text_11">
      <!-- 20 -->
      <g style="fill:#262626;" transform="translate(22.25984375 92.6434375)scale(0.1 -0.1)">
       <use xlink:href="#ArialMT-32"/>
       <use x="55.615234375" xlink:href="#ArialMT-30"/>
      </g>
     </g>
    </g>
    <g id="ytick_4">
     <g id="line2d_21">
      <path clip-path="url(#p93fbd4419a)" d="M 40.381719 70.486875 
L 150.905469 70.486875 
" style="fill:none;stroke:#cccccc;stroke-linecap:round;"/>
     </g>
     <g id="line2d_22">
      <g>
       <use style="fill:#262626;stroke:#262626;" x="40.38171875" xlink:href="#me6c4626fd7" y="70.486875"/>
      </g>
     </g>
     <g id="text_12">
      <!-- 30 -->
      <defs>
       <path d="M 4.203125 18.890625 
L 12.984375 20.0625 
Q 14.5 12.59375 18.140625 9.296875 
Q 21.78125 6 27 6 
Q 33.203125 6 37.46875 10.296875 
Q 41.75 14.59375 41.75 20.953125 
Q 41.75 27 37.796875 30.921875 
Q 33.84375 34.859375 27.734375 34.859375 
Q 25.25 34.859375 21.53125 33.890625 
L 22.515625 41.609375 
Q 23.390625 41.5 23.921875 41.5 
Q 29.546875 41.5 34.03125 44.421875 
Q 38.53125 47.359375 38.53125 53.46875 
Q 38.53125 58.296875 35.25 61.46875 
Q 31.984375 64.65625 26.8125 64.65625 
Q 21.6875 64.65625 18.265625 61.421875 
Q 14.84375 58.203125 13.875 51.765625 
L 5.078125 53.328125 
Q 6.6875 62.15625 12.390625 67.015625 
Q 18.109375 71.875 26.609375 71.875 
Q 32.46875 71.875 37.390625 69.359375 
Q 42.328125 66.84375 44.9375 62.5 
Q 47.5625 58.15625 47.5625 53.265625 
Q 47.5625 48.640625 45.0625 44.828125 
Q 42.578125 41.015625 37.703125 38.765625 
Q 44.046875 37.3125 47.5625 32.6875 
Q 51.078125 28.078125 51.078125 21.140625 
Q 51.078125 11.765625 44.234375 5.25 
Q 37.40625 -1.265625 26.953125 -1.265625 
Q 17.53125 -1.265625 11.296875 4.34375 
Q 5.078125 9.96875 4.203125 18.890625 
" id="ArialMT-33"/>
      </defs>
      <g style="fill:#262626;" transform="translate(22.25984375 73.07203125)scale(0.1 -0.1)">
       <use xlink:href="#ArialMT-33"/>
       <use x="55.615234375" xlink:href="#ArialMT-30"/>
      </g>
     </g>
    </g>
    <g id="ytick_5">
     <g id="line2d_23">
      <path clip-path="url(#p93fbd4419a)" d="M 40.381719 50.915469 
L 150.905469 50.915469 
" style="fill:none;stroke:#cccccc;stroke-linecap:round;"/>
     </g>
     <g id="line2d_24">
      <g>
       <use style="fill:#262626;stroke:#262626;" x="40.38171875" xlink:href="#me6c4626fd7" y="50.91546875"/>
      </g>
     </g>
     <g id="text_13">
      <!-- 40 -->
      <g style="fill:#262626;" transform="translate(22.25984375 53.500625)scale(0.1 -0.1)">
       <use xlink:href="#ArialMT-34"/>
       <use x="55.615234375" xlink:href="#ArialMT-30"/>
      </g>
     </g>
    </g>
    <g id="ytick_6">
     <g id="line2d_25">
      <path clip-path="url(#p93fbd4419a)" d="M 40.381719 31.344062 
L 150.905469 31.344062 
" style="fill:none;stroke:#cccccc;stroke-linecap:round;"/>
     </g>
     <g id="line2d_26">
      <g>
       <use style="fill:#262626;stroke:#262626;" x="40.38171875" xlink:href="#me6c4626fd7" y="31.3440625"/>
      </g>
     </g>
     <g id="text_14">
      <!-- 50 -->
      <defs>
       <path d="M 4.15625 18.75 
L 13.375 19.53125 
Q 14.40625 12.796875 18.140625 9.390625 
Q 21.875 6 27.15625 6 
Q 33.5 6 37.890625 10.78125 
Q 42.28125 15.578125 42.28125 23.484375 
Q 42.28125 31 38.0625 35.34375 
Q 33.84375 39.703125 27 39.703125 
Q 22.75 39.703125 19.328125 37.765625 
Q 15.921875 35.84375 13.96875 32.765625 
L 5.71875 33.84375 
L 12.640625 70.609375 
L 48.25 70.609375 
L 48.25 62.203125 
L 19.671875 62.203125 
L 15.828125 42.96875 
Q 22.265625 47.46875 29.34375 47.46875 
Q 38.71875 47.46875 45.15625 40.96875 
Q 51.609375 34.46875 51.609375 24.265625 
Q 51.609375 14.546875 45.953125 7.46875 
Q 39.0625 -1.21875 27.15625 -1.21875 
Q 17.390625 -1.21875 11.203125 4.25 
Q 5.03125 9.71875 4.15625 18.75 
" id="ArialMT-35"/>
      </defs>
      <g style="fill:#262626;" transform="translate(22.25984375 33.92921875)scale(0.1 -0.1)">
       <use xlink:href="#ArialMT-35"/>
       <use x="55.615234375" xlink:href="#ArialMT-30"/>
      </g>
     </g>
    </g>
    <g id="ytick_7">
     <g id="line2d_27">
      <path clip-path="url(#p93fbd4419a)" d="M 40.381719 11.772656 
L 150.905469 11.772656 
" style="fill:none;stroke:#cccccc;stroke-linecap:round;"/>
     </g>
     <g id="line2d_28">
      <g>
       <use style="fill:#262626;stroke:#262626;" x="40.38171875" xlink:href="#me6c4626fd7" y="11.77265625"/>
      </g>
     </g>
     <g id="text_15">
      <!-- 60 -->
      <g style="fill:#262626;" transform="translate(22.25984375 14.3578125)scale(0.1 -0.1)">
       <use xlink:href="#ArialMT-36"/>
       <use x="55.615234375" xlink:href="#ArialMT-30"/>
      </g>
     </g>
    </g>
    <g id="text_16">
     <!-- median_value -->
     <defs>
      <path d="M 21 0 
L 1.265625 51.859375 
L 10.546875 51.859375 
L 21.6875 20.796875 
Q 23.484375 15.765625 25 10.359375 
Q 26.171875 14.453125 28.265625 20.21875 
L 39.796875 51.859375 
L 48.828125 51.859375 
L 29.203125 0 
z
" id="ArialMT-76"/>
      <path d="M 40.234375 0 
L 40.234375 6.546875 
Q 35.296875 -1.171875 25.734375 -1.171875 
Q 19.53125 -1.171875 14.328125 2.25 
Q 9.125 5.671875 6.265625 11.796875 
Q 3.421875 17.921875 3.421875 25.875 
Q 3.421875 33.640625 6 39.96875 
Q 8.59375 46.296875 13.765625 49.65625 
Q 18.953125 53.03125 25.34375 53.03125 
Q 30.03125 53.03125 33.6875 51.046875 
Q 37.359375 49.078125 39.65625 45.90625 
L 39.65625 71.578125 
L 48.390625 71.578125 
L 48.390625 0 
z
M 12.453125 25.875 
Q 12.453125 15.921875 16.640625 10.984375 
Q 20.84375 6.0625 26.5625 6.0625 
Q 32.328125 6.0625 36.34375 10.765625 
Q 40.375 15.484375 40.375 25.140625 
Q 40.375 35.796875 36.265625 40.765625 
Q 32.171875 45.75 26.171875 45.75 
Q 20.3125 45.75 16.375 40.96875 
Q 12.453125 36.1875 12.453125 25.875 
" id="ArialMT-64"/>
      <path d="M 6.59375 0 
L 6.59375 51.859375 
L 14.5 51.859375 
L 14.5 44.484375 
Q 20.21875 53.03125 31 53.03125 
Q 35.6875 53.03125 39.625 51.34375 
Q 43.5625 49.65625 45.515625 46.921875 
Q 47.46875 44.1875 48.25 40.4375 
Q 48.734375 37.984375 48.734375 31.890625 
L 48.734375 0 
L 39.9375 0 
L 39.9375 31.546875 
Q 39.9375 36.921875 38.90625 39.578125 
Q 37.890625 42.234375 35.28125 43.8125 
Q 32.671875 45.40625 29.15625 45.40625 
Q 23.53125 45.40625 19.453125 41.84375 
Q 15.375 38.28125 15.375 28.328125 
L 15.375 0 
z
" id="ArialMT-6e"/>
      <path d="M 6.59375 0 
L 6.59375 51.859375 
L 14.453125 51.859375 
L 14.453125 44.578125 
Q 16.890625 48.390625 20.9375 50.703125 
Q 25 53.03125 30.171875 53.03125 
Q 35.9375 53.03125 39.625 50.640625 
Q 43.3125 48.25 44.828125 43.953125 
Q 50.984375 53.03125 60.84375 53.03125 
Q 68.5625 53.03125 72.703125 48.75 
Q 76.859375 44.484375 76.859375 35.59375 
L 76.859375 0 
L 68.109375 0 
L 68.109375 32.671875 
Q 68.109375 37.9375 67.25 40.25 
Q 66.40625 42.578125 64.15625 43.984375 
Q 61.921875 45.40625 58.890625 45.40625 
Q 53.421875 45.40625 49.796875 41.765625 
Q 46.1875 38.140625 46.1875 30.125 
L 46.1875 0 
L 37.40625 0 
L 37.40625 33.6875 
Q 37.40625 39.546875 35.25 42.46875 
Q 33.109375 45.40625 28.21875 45.40625 
Q 24.515625 45.40625 21.359375 43.453125 
Q 18.21875 41.5 16.796875 37.734375 
Q 15.375 33.984375 15.375 26.90625 
L 15.375 0 
z
" id="ArialMT-6d"/>
     </defs>
     <g style="fill:#262626;" transform="translate(15.07359375 104.730390625)rotate(-90.0)scale(0.11 -0.11)">
      <use xlink:href="#ArialMT-6d"/>
      <use x="83.30078125" xlink:href="#ArialMT-65"/>
      <use x="138.916015625" xlink:href="#ArialMT-64"/>
      <use x="194.53125" xlink:href="#ArialMT-69"/>
      <use x="216.748046875" xlink:href="#ArialMT-61"/>
      <use x="272.36328125" xlink:href="#ArialMT-6e"/>
      <use x="327.978515625" xlink:href="#ArialMT-5f"/>
      <use x="383.59375" xlink:href="#ArialMT-76"/>
      <use x="433.59375" xlink:href="#ArialMT-61"/>
      <use x="489.208984375" xlink:href="#ArialMT-6c"/>
      <use x="511.42578125" xlink:href="#ArialMT-75"/>
      <use x="567.041015625" xlink:href="#ArialMT-65"/>
     </g>
    </g>
   </g>
   <g id="PathCollection_1">
    <defs>
     <path d="M 0 2.236068 
C 0.593012 2.236068 1.161816 2.000462 1.581139 1.581139 
C 2.000462 1.161816 2.236068 0.593012 2.236068 0 
C 2.236068 -0.593012 2.000462 -1.161816 1.581139 -1.581139 
C 1.161816 -2.000462 0.593012 -2.236068 0 -2.236068 
C -0.593012 -2.236068 -1.161816 -2.000462 -1.581139 -1.581139 
C -2.000462 -1.161816 -2.236068 -0.593012 -2.236068 0 
C -2.236068 0.593012 -2.000462 1.161816 -1.581139 1.581139 
C -1.161816 2.000462 -0.593012 2.236068 0 2.236068 
z
" id="m231c05f219"/>
    </defs>
    <g clip-path="url(#p93fbd4419a)">
     <use style="fill:#4c72b0;fill-opacity:0.8;" x="70.77575" xlink:href="#m231c05f219" y="82.22971875"/>
     <use style="fill:#4c72b0;fill-opacity:0.8;" x="93.80153125" xlink:href="#m231c05f219" y="86.92685625"/>
     <use style="fill:#4c72b0;fill-opacity:0.8;" x="93.80153125" xlink:href="#m231c05f219" y="61.2883140625"/>
     <use style="fill:#4c72b0;fill-opacity:0.8;" x="102.0908125" xlink:href="#m231c05f219" y="63.832596875"/>
     <use style="fill:#4c72b0;fill-opacity:0.8;" x="102.0908125" xlink:href="#m231c05f219" y="58.352603125"/>
     <use style="fill:#4c72b0;fill-opacity:0.8;" x="102.0908125" xlink:href="#m231c05f219" y="73.0311578125"/>
     <use style="fill:#4c72b0;fill-opacity:0.8;" x="69.85471875" xlink:href="#m231c05f219" y="84.3825734375"/>
     <use style="fill:#4c72b0;fill-opacity:0.8;" x="69.85471875" xlink:href="#m231c05f219" y="76.1625828125"/>
     <use style="fill:#4c72b0;fill-opacity:0.8;" x="69.85471875" xlink:href="#m231c05f219" y="96.9082734375"/>
     <use style="fill:#4c72b0;fill-opacity:0.8;" x="69.85471875" xlink:href="#m231c05f219" y="92.2111359375"/>
     <use style="fill:#4c72b0;fill-opacity:0.8;" x="69.85471875" xlink:href="#m231c05f219" y="99.843984375"/>
     <use style="fill:#4c72b0;fill-opacity:0.8;" x="69.85471875" xlink:href="#m231c05f219" y="92.2111359375"/>
     <use style="fill:#4c72b0;fill-opacity:0.8;" x="69.85471875" xlink:href="#m231c05f219" y="86.7311421875"/>
     <use style="fill:#4c72b0;fill-opacity:0.8;" x="123.27453125" xlink:href="#m231c05f219" y="89.275425"/>
     <use style="fill:#4c72b0;fill-opacity:0.8;" x="123.27453125" xlink:href="#m231c05f219" y="93.581134375"/>
     <use style="fill:#4c72b0;fill-opacity:0.8;" x="123.27453125" xlink:href="#m231c05f219" y="90.2539953125"/>
     <use style="fill:#4c72b0;fill-opacity:0.8;" x="123.27453125" xlink:href="#m231c05f219" y="83.9911453125"/>
     <use style="fill:#4c72b0;fill-opacity:0.8;" x="123.27453125" xlink:href="#m231c05f219" y="94.9511328125"/>
     <use style="fill:#4c72b0;fill-opacity:0.8;" x="123.27453125" xlink:href="#m231c05f219" y="89.666853125"/>
     <use style="fill:#4c72b0;fill-opacity:0.8;" x="123.27453125" xlink:href="#m231c05f219" y="93.581134375"/>
     <use style="fill:#4c72b0;fill-opacity:0.8;" x="123.27453125" xlink:href="#m231c05f219" y="102.58398125"/>
     <use style="fill:#4c72b0;fill-opacity:0.8;" x="123.27453125" xlink:href="#m231c05f219" y="90.8411375"/>
     <use style="fill:#4c72b0;fill-opacity:0.8;" x="123.27453125" xlink:href="#m231c05f219" y="99.45255625"/>
     <use style="fill:#4c72b0;fill-opacity:0.8;" x="123.27453125" xlink:href="#m231c05f219" y="100.822554687"/>
     <use style="fill:#4c72b0;fill-opacity:0.8;" x="123.27453125" xlink:href="#m231c05f219" y="98.6697"/>
     <use style="fill:#4c72b0;fill-opacity:0.8;" x="123.27453125" xlink:href="#m231c05f219" y="101.996839062"/>
     <use style="fill:#4c72b0;fill-opacity:0.8;" x="123.27453125" xlink:href="#m231c05f219" y="96.712559375"/>
     <use style="fill:#4c72b0;fill-opacity:0.8;" x="123.27453125" xlink:href="#m231c05f219" y="100.2354125"/>
     <use style="fill:#4c72b0;fill-opacity:0.8;" x="123.27453125" xlink:href="#m231c05f219" y="93.18970625"/>
     <use style="fill:#4c72b0;fill-opacity:0.8;" x="123.27453125" xlink:href="#m231c05f219" y="88.101140625"/>
     <use style="fill:#4c72b0;fill-opacity:0.8;" x="123.27453125" xlink:href="#m231c05f219" y="104.345407812"/>
     <use style="fill:#4c72b0;fill-opacity:0.8;" x="123.27453125" xlink:href="#m231c05f219" y="100.822554687"/>
     <use style="fill:#4c72b0;fill-opacity:0.8;" x="123.27453125" xlink:href="#m231c05f219" y="103.3668375"/>
     <use style="fill:#4c72b0;fill-opacity:0.8;" x="123.27453125" xlink:href="#m231c05f219" y="103.562551562"/>
     <use style="fill:#4c72b0;fill-opacity:0.8;" x="123.27453125" xlink:href="#m231c05f219" y="102.779695312"/>
     <use style="fill:#4c72b0;fill-opacity:0.8;" x="106.69596875" xlink:href="#m231c05f219" y="92.2111359375"/>
     <use style="fill:#4c72b0;fill-opacity:0.8;" x="106.69596875" xlink:href="#m231c05f219" y="90.05828125"/>
     <use style="fill:#4c72b0;fill-opacity:0.8;" x="106.69596875" xlink:href="#m231c05f219" y="88.101140625"/>
     <use style="fill:#4c72b0;fill-opacity:0.8;" x="106.69596875" xlink:href="#m231c05f219" y="80.8597203125"/>
     <use style="fill:#4c72b0;fill-opacity:0.8;" x="98.4066875" xlink:href="#m231c05f219" y="68.9211625"/>
     <use style="fill:#4c72b0;fill-opacity:0.8;" x="98.4066875" xlink:href="#m231c05f219" y="60.8968859375"/>
     <use style="fill:#4c72b0;fill-opacity:0.8;" x="94.7225625" xlink:href="#m231c05f219" y="77.141153125"/>
     <use style="fill:#4c72b0;fill-opacity:0.8;" x="94.7225625" xlink:href="#m231c05f219" y="79.6854359375"/>
     <use style="fill:#4c72b0;fill-opacity:0.8;" x="94.7225625" xlink:href="#m231c05f219" y="80.8597203125"/>
     <use style="fill:#4c72b0;fill-opacity:0.8;" x="94.7225625" xlink:href="#m231c05f219" y="87.7097125"/>
     <use style="fill:#4c72b0;fill-opacity:0.8;" x="94.7225625" xlink:href="#m231c05f219" y="91.4282796875"/>
     <use style="fill:#4c72b0;fill-opacity:0.8;" x="94.7225625" xlink:href="#m231c05f219" y="90.05828125"/>
     <use style="fill:#4c72b0;fill-opacity:0.8;" x="94.7225625" xlink:href="#m231c05f219" y="96.712559375"/>
     <use style="fill:#4c72b0;fill-opacity:0.8;" x="94.7225625" xlink:href="#m231c05f219" y="101.01826875"/>
     <use style="fill:#4c72b0;fill-opacity:0.8;" x="94.7225625" xlink:href="#m231c05f219" y="91.232565625"/>
     <use style="fill:#4c72b0;fill-opacity:0.8;" x="84.59121875" xlink:href="#m231c05f219" y="90.6454234375"/>
     <use style="fill:#4c72b0;fill-opacity:0.8;" x="84.59121875" xlink:href="#m231c05f219" y="89.0797109375"/>
     <use style="fill:#4c72b0;fill-opacity:0.8;" x="84.59121875" xlink:href="#m231c05f219" y="80.272578125"/>
     <use style="fill:#4c72b0;fill-opacity:0.8;" x="84.59121875" xlink:href="#m231c05f219" y="83.404003125"/>
     <use style="fill:#4c72b0;fill-opacity:0.8;" x="124.1955625" xlink:href="#m231c05f219" y="92.2111359375"/>
     <use style="fill:#4c72b0;fill-opacity:0.8;" x="94.7225625" xlink:href="#m231c05f219" y="59.918315625"/>
     <use style="fill:#4c72b0;fill-opacity:0.8;" x="89.196375" xlink:href="#m231c05f219" y="80.8597203125"/>
     <use style="fill:#4c72b0;fill-opacity:0.8;" x="68.9336875" xlink:href="#m231c05f219" y="67.35545"/>
     <use style="fill:#4c72b0;fill-opacity:0.8;" x="111.301125" xlink:href="#m231c05f219" y="83.5997171875"/>
     <use style="fill:#4c72b0;fill-opacity:0.8;" x="111.301125" xlink:href="#m231c05f219" y="90.8411375"/>
     <use style="fill:#4c72b0;fill-opacity:0.8;" x="111.301125" xlink:href="#m231c05f219" y="92.6025640625"/>
     <use style="fill:#4c72b0;fill-opacity:0.8;" x="111.301125" xlink:href="#m231c05f219" y="97.88684375"/>
     <use style="fill:#4c72b0;fill-opacity:0.8;" x="111.301125" xlink:href="#m231c05f219" y="85.752571875"/>
     <use style="fill:#4c72b0;fill-opacity:0.8;" x="111.301125" xlink:href="#m231c05f219" y="80.272578125"/>
     <use style="fill:#4c72b0;fill-opacity:0.8;" x="101.16978125" xlink:href="#m231c05f219" y="64.615453125"/>
     <use style="fill:#4c72b0;fill-opacity:0.8;" x="78.144" xlink:href="#m231c05f219" y="83.2082890625"/>
     <use style="fill:#4c72b0;fill-opacity:0.8;" x="78.144" xlink:href="#m231c05f219" y="91.232565625"/>
     <use style="fill:#4c72b0;fill-opacity:0.8;" x="103.932875" xlink:href="#m231c05f219" y="86.144"/>
     <use style="fill:#4c72b0;fill-opacity:0.8;" x="103.932875" xlink:href="#m231c05f219" y="95.146846875"/>
     <use style="fill:#4c72b0;fill-opacity:0.8;" x="103.932875" xlink:href="#m231c05f219" y="88.2968546875"/>
     <use style="fill:#4c72b0;fill-opacity:0.8;" x="106.69596875" xlink:href="#m231c05f219" y="81.838290625"/>
     <use style="fill:#4c72b0;fill-opacity:0.8;" x="106.69596875" xlink:href="#m231c05f219" y="86.7311421875"/>
     <use style="fill:#4c72b0;fill-opacity:0.8;" x="106.69596875" xlink:href="#m231c05f219" y="84.5782875"/>
     <use style="fill:#4c72b0;fill-opacity:0.8;" x="106.69596875" xlink:href="#m231c05f219" y="83.404003125"/>
     <use style="fill:#4c72b0;fill-opacity:0.8;" x="102.0908125" xlink:href="#m231c05f219" y="82.0340046875"/>
     <use style="fill:#4c72b0;fill-opacity:0.8;" x="102.0908125" xlink:href="#m231c05f219" y="87.318284375"/>
     <use style="fill:#4c72b0;fill-opacity:0.8;" x="102.0908125" xlink:href="#m231c05f219" y="90.05828125"/>
     <use style="fill:#4c72b0;fill-opacity:0.8;" x="102.0908125" xlink:href="#m231c05f219" y="88.49256875"/>
     <use style="fill:#4c72b0;fill-opacity:0.8;" x="102.0908125" xlink:href="#m231c05f219" y="87.7097125"/>
     <use style="fill:#4c72b0;fill-opacity:0.8;" x="102.0908125" xlink:href="#m231c05f219" y="89.4711390625"/>
     <use style="fill:#4c72b0;fill-opacity:0.8;" x="104.85390625" xlink:href="#m231c05f219" y="74.40115625"/>
     <use style="fill:#4c72b0;fill-opacity:0.8;" x="104.85390625" xlink:href="#m231c05f219" y="82.4254328125"/>
     <use style="fill:#4c72b0;fill-opacity:0.8;" x="104.85390625" xlink:href="#m231c05f219" y="80.66400625"/>
     <use style="fill:#4c72b0;fill-opacity:0.8;" x="104.85390625" xlink:href="#m231c05f219" y="84.3825734375"/>
     <use style="fill:#4c72b0;fill-opacity:0.8;" x="100.24875" xlink:href="#m231c05f219" y="82.4254328125"/>
     <use style="fill:#4c72b0;fill-opacity:0.8;" x="100.24875" xlink:href="#m231c05f219" y="77.141153125"/>
     <use style="fill:#4c72b0;fill-opacity:0.8;" x="100.24875" xlink:href="#m231c05f219" y="85.1654296875"/>
     <use style="fill:#4c72b0;fill-opacity:0.8;" x="100.24875" xlink:href="#m231c05f219" y="85.752571875"/>
     <use style="fill:#4c72b0;fill-opacity:0.8;" x="93.80153125" xlink:href="#m231c05f219" y="83.012575"/>
     <use style="fill:#4c72b0;fill-opacity:0.8;" x="93.80153125" xlink:href="#m231c05f219" y="73.0311578125"/>
     <use style="fill:#4c72b0;fill-opacity:0.8;" x="93.80153125" xlink:href="#m231c05f219" y="84.969715625"/>
     <use style="fill:#4c72b0;fill-opacity:0.8;" x="93.80153125" xlink:href="#m231c05f219" y="86.144"/>
     <use style="fill:#4c72b0;fill-opacity:0.8;" x="97.48565625" xlink:href="#m231c05f219" y="84.3825734375"/>
     <use style="fill:#4c72b0;fill-opacity:0.8;" x="97.48565625" xlink:href="#m231c05f219" y="80.272578125"/>
     <use style="fill:#4c72b0;fill-opacity:0.8;" x="97.48565625" xlink:href="#m231c05f219" y="88.883996875"/>
     <use style="fill:#4c72b0;fill-opacity:0.8;" x="95.64359375" xlink:href="#m231c05f219" y="73.6183"/>
     <use style="fill:#4c72b0;fill-opacity:0.8;" x="95.64359375" xlink:href="#m231c05f219" y="87.318284375"/>
     <use style="fill:#4c72b0;fill-opacity:0.8;" x="95.64359375" xlink:href="#m231c05f219" y="53.4597515625"/>
     <use style="fill:#4c72b0;fill-opacity:0.8;" x="95.64359375" xlink:href="#m231c05f219" y="43.478334375"/>
     <use style="fill:#4c72b0;fill-opacity:0.8;" x="95.64359375" xlink:href="#m231c05f219" y="64.224025"/>
     <use style="fill:#4c72b0;fill-opacity:0.8;" x="122.3535" xlink:href="#m231c05f219" y="75.3797265625"/>
     <use style="fill:#4c72b0;fill-opacity:0.8;" x="122.3535" xlink:href="#m231c05f219" y="77.3368671875"/>
     <use style="fill:#4c72b0;fill-opacity:0.8;" x="122.3535" xlink:href="#m231c05f219" y="92.798278125"/>
     <use style="fill:#4c72b0;fill-opacity:0.8;" x="122.3535" xlink:href="#m231c05f219" y="91.4282796875"/>
     <use style="fill:#4c72b0;fill-opacity:0.8;" x="122.3535" xlink:href="#m231c05f219" y="89.8625671875"/>
     <use style="fill:#4c72b0;fill-opacity:0.8;" x="122.3535" xlink:href="#m231c05f219" y="91.0368515625"/>
     <use style="fill:#4c72b0;fill-opacity:0.8;" x="122.3535" xlink:href="#m231c05f219" y="91.0368515625"/>
     <use style="fill:#4c72b0;fill-opacity:0.8;" x="122.3535" xlink:href="#m231c05f219" y="89.275425"/>
     <use style="fill:#4c72b0;fill-opacity:0.8;" x="122.3535" xlink:href="#m231c05f219" y="90.449709375"/>
     <use style="fill:#4c72b0;fill-opacity:0.8;" x="122.3535" xlink:href="#m231c05f219" y="91.232565625"/>
     <use style="fill:#4c72b0;fill-opacity:0.8;" x="122.3535" xlink:href="#m231c05f219" y="86.7311421875"/>
     <use style="fill:#4c72b0;fill-opacity:0.8;" x="93.80153125" xlink:href="#m231c05f219" y="84.5782875"/>
     <use style="fill:#4c72b0;fill-opacity:0.8;" x="93.80153125" xlink:href="#m231c05f219" y="92.40685"/>
     <use style="fill:#4c72b0;fill-opacity:0.8;" x="93.80153125" xlink:href="#m231c05f219" y="92.6025640625"/>
     <use style="fill:#4c72b0;fill-opacity:0.8;" x="93.80153125" xlink:href="#m231c05f219" y="92.9939921875"/>
     <use style="fill:#4c72b0;fill-opacity:0.8;" x="93.80153125" xlink:href="#m231c05f219" y="93.3854203125"/>
     <use style="fill:#4c72b0;fill-opacity:0.8;" x="93.80153125" xlink:href="#m231c05f219" y="87.7097125"/>
     <use style="fill:#4c72b0;fill-opacity:0.8;" x="93.80153125" xlink:href="#m231c05f219" y="91.62399375"/>
     <use style="fill:#4c72b0;fill-opacity:0.8;" x="93.80153125" xlink:href="#m231c05f219" y="89.275425"/>
     <use style="fill:#4c72b0;fill-opacity:0.8;" x="93.80153125" xlink:href="#m231c05f219" y="91.4282796875"/>
     <use style="fill:#4c72b0;fill-opacity:0.8;" x="105.7749375" xlink:href="#m231c05f219" y="86.144"/>
     <use style="fill:#4c72b0;fill-opacity:0.8;" x="105.7749375" xlink:href="#m231c05f219" y="89.4711390625"/>
     <use style="fill:#4c72b0;fill-opacity:0.8;" x="105.7749375" xlink:href="#m231c05f219" y="89.0797109375"/>
     <use style="fill:#4c72b0;fill-opacity:0.8;" x="105.7749375" xlink:href="#m231c05f219" y="95.3425609375"/>
     <use style="fill:#4c72b0;fill-opacity:0.8;" x="105.7749375" xlink:href="#m231c05f219" y="92.40685"/>
     <use style="fill:#4c72b0;fill-opacity:0.8;" x="105.7749375" xlink:href="#m231c05f219" y="87.318284375"/>
     <use style="fill:#4c72b0;fill-opacity:0.8;" x="105.7749375" xlink:href="#m231c05f219" y="98.4739859375"/>
     <use style="fill:#4c72b0;fill-opacity:0.8;" x="125.11659375" xlink:href="#m231c05f219" y="97.495415625"/>
     <use style="fill:#4c72b0;fill-opacity:0.8;" x="125.11659375" xlink:href="#m231c05f219" y="93.9725625"/>
     <use style="fill:#4c72b0;fill-opacity:0.8;" x="125.11659375" xlink:href="#m231c05f219" y="101.213982812"/>
     <use style="fill:#4c72b0;fill-opacity:0.8;" x="125.11659375" xlink:href="#m231c05f219" y="91.62399375"/>
     <use style="fill:#4c72b0;fill-opacity:0.8;" x="125.11659375" xlink:href="#m231c05f219" y="90.8411375"/>
     <use style="fill:#4c72b0;fill-opacity:0.8;" x="125.11659375" xlink:href="#m231c05f219" y="84.186859375"/>
     <use style="fill:#4c72b0;fill-opacity:0.8;" x="125.11659375" xlink:href="#m231c05f219" y="93.18970625"/>
     <use style="fill:#4c72b0;fill-opacity:0.8;" x="125.11659375" xlink:href="#m231c05f219" y="98.6697"/>
     <use style="fill:#4c72b0;fill-opacity:0.8;" x="125.11659375" xlink:href="#m231c05f219" y="93.7768484375"/>
     <use style="fill:#4c72b0;fill-opacity:0.8;" x="125.11659375" xlink:href="#m231c05f219" y="95.146846875"/>
     <use style="fill:#4c72b0;fill-opacity:0.8;" x="125.11659375" xlink:href="#m231c05f219" y="95.7339890625"/>
     <use style="fill:#4c72b0;fill-opacity:0.8;" x="125.11659375" xlink:href="#m231c05f219" y="103.171123437"/>
     <use style="fill:#4c72b0;fill-opacity:0.8;" x="125.11659375" xlink:href="#m231c05f219" y="94.363990625"/>
     <use style="fill:#4c72b0;fill-opacity:0.8;" x="125.11659375" xlink:href="#m231c05f219" y="101.801125"/>
     <use style="fill:#4c72b0;fill-opacity:0.8;" x="125.11659375" xlink:href="#m231c05f219" y="101.01826875"/>
     <use style="fill:#4c72b0;fill-opacity:0.8;" x="65.2495625" xlink:href="#m231c05f219" y="102.975409375"/>
     <use style="fill:#4c72b0;fill-opacity:0.8;" x="65.2495625" xlink:href="#m231c05f219" y="98.6697"/>
     <use style="fill:#4c72b0;fill-opacity:0.8;" x="65.2495625" xlink:href="#m231c05f219" y="106.106834375"/>
     <use style="fill:#4c72b0;fill-opacity:0.8;" x="65.2495625" xlink:href="#m231c05f219" y="102.192553125"/>
     <use style="fill:#4c72b0;fill-opacity:0.8;" x="65.2495625" xlink:href="#m231c05f219" y="98.6697"/>
     <use style="fill:#4c72b0;fill-opacity:0.8;" x="65.2495625" xlink:href="#m231c05f219" y="100.626840625"/>
     <use style="fill:#4c72b0;fill-opacity:0.8;" x="65.2495625" xlink:href="#m231c05f219" y="94.363990625"/>
     <use style="fill:#4c72b0;fill-opacity:0.8;" x="65.2495625" xlink:href="#m231c05f219" y="99.061128125"/>
     <use style="fill:#4c72b0;fill-opacity:0.8;" x="65.2495625" xlink:href="#m231c05f219" y="87.1225703125"/>
     <use style="fill:#4c72b0;fill-opacity:0.8;" x="65.2495625" xlink:href="#m231c05f219" y="90.8411375"/>
     <use style="fill:#4c72b0;fill-opacity:0.8;" x="65.2495625" xlink:href="#m231c05f219" y="99.2568421875"/>
     <use style="fill:#4c72b0;fill-opacity:0.8;" x="65.2495625" xlink:href="#m231c05f219" y="91.232565625"/>
     <use style="fill:#4c72b0;fill-opacity:0.8;" x="65.2495625" xlink:href="#m231c05f219" y="95.929703125"/>
     <use style="fill:#4c72b0;fill-opacity:0.8;" x="65.2495625" xlink:href="#m231c05f219" y="98.6697"/>
     <use style="fill:#4c72b0;fill-opacity:0.8;" x="65.2495625" xlink:href="#m231c05f219" y="103.562551562"/>
     <use style="fill:#4c72b0;fill-opacity:0.8;" x="65.2495625" xlink:href="#m231c05f219" y="48.3711859375"/>
     <use style="fill:#4c72b0;fill-opacity:0.8;" x="65.2495625" xlink:href="#m231c05f219" y="81.6425765625"/>
     <use style="fill:#4c72b0;fill-opacity:0.8;" x="65.2495625" xlink:href="#m231c05f219" y="83.5997171875"/>
     <use style="fill:#4c72b0;fill-opacity:0.8;" x="65.2495625" xlink:href="#m231c05f219" y="76.358296875"/>
     <use style="fill:#4c72b0;fill-opacity:0.8;" x="65.2495625" xlink:href="#m231c05f219" y="31.3440625"/>
     <use style="fill:#4c72b0;fill-opacity:0.8;" x="65.2495625" xlink:href="#m231c05f219" y="31.3440625"/>
     <use style="fill:#4c72b0;fill-opacity:0.8;" x="65.2495625" xlink:href="#m231c05f219" y="31.3440625"/>
     <use style="fill:#4c72b0;fill-opacity:0.8;" x="65.2495625" xlink:href="#m231c05f219" y="84.7740015625"/>
     <use style="fill:#4c72b0;fill-opacity:0.8;" x="65.2495625" xlink:href="#m231c05f219" y="80.272578125"/>
     <use style="fill:#4c72b0;fill-opacity:0.8;" x="65.2495625" xlink:href="#m231c05f219" y="31.3440625"/>
     <use style="fill:#4c72b0;fill-opacity:0.8;" x="65.2495625" xlink:href="#m231c05f219" y="82.621146875"/>
     <use style="fill:#4c72b0;fill-opacity:0.8;" x="65.2495625" xlink:href="#m231c05f219" y="82.621146875"/>
     <use style="fill:#4c72b0;fill-opacity:0.8;" x="65.2495625" xlink:href="#m231c05f219" y="85.5568578125"/>
     <use style="fill:#4c72b0;fill-opacity:0.8;" x="65.2495625" xlink:href="#m231c05f219" y="95.146846875"/>
     <use style="fill:#4c72b0;fill-opacity:0.8;" x="65.2495625" xlink:href="#m231c05f219" y="91.8197078125"/>
     <use style="fill:#4c72b0;fill-opacity:0.8;" x="82.74915625" xlink:href="#m231c05f219" y="83.9911453125"/>
     <use style="fill:#4c72b0;fill-opacity:0.8;" x="82.74915625" xlink:href="#m231c05f219" y="83.012575"/>
     <use style="fill:#4c72b0;fill-opacity:0.8;" x="82.74915625" xlink:href="#m231c05f219" y="84.969715625"/>
     <use style="fill:#4c72b0;fill-opacity:0.8;" x="82.74915625" xlink:href="#m231c05f219" y="71.661159375"/>
     <use style="fill:#4c72b0;fill-opacity:0.8;" x="82.74915625" xlink:href="#m231c05f219" y="83.79543125"/>
     <use style="fill:#4c72b0;fill-opacity:0.8;" x="82.74915625" xlink:href="#m231c05f219" y="81.055434375"/>
     <use style="fill:#4c72b0;fill-opacity:0.8;" x="82.74915625" xlink:href="#m231c05f219" y="70.6825890625"/>
     <use style="fill:#4c72b0;fill-opacity:0.8;" x="93.80153125" xlink:href="#m231c05f219" y="56.3954625"/>
     <use style="fill:#4c72b0;fill-opacity:0.8;" x="93.80153125" xlink:href="#m231c05f219" y="51.306896875"/>
     <use style="fill:#4c72b0;fill-opacity:0.8;" x="93.80153125" xlink:href="#m231c05f219" y="58.352603125"/>
     <use style="fill:#4c72b0;fill-opacity:0.8;" x="93.80153125" xlink:href="#m231c05f219" y="55.0254640625"/>
     <use style="fill:#4c72b0;fill-opacity:0.8;" x="93.80153125" xlink:href="#m231c05f219" y="65.5940234375"/>
     <use style="fill:#4c72b0;fill-opacity:0.8;" x="93.80153125" xlink:href="#m231c05f219" y="77.53258125"/>
     <use style="fill:#4c72b0;fill-opacity:0.8;" x="93.80153125" xlink:href="#m231c05f219" y="71.26973125"/>
     <use style="fill:#4c72b0;fill-opacity:0.8;" x="93.80153125" xlink:href="#m231c05f219" y="31.3440625"/>
     <use style="fill:#4c72b0;fill-opacity:0.8;" x="69.85471875" xlink:href="#m231c05f219" y="66.57259375"/>
     <use style="fill:#4c72b0;fill-opacity:0.8;" x="69.85471875" xlink:href="#m231c05f219" y="70.878303125"/>
     <use style="fill:#4c72b0;fill-opacity:0.8;" x="69.85471875" xlink:href="#m231c05f219" y="60.8968859375"/>
     <use style="fill:#4c72b0;fill-opacity:0.8;" x="69.85471875" xlink:href="#m231c05f219" y="56.786890625"/>
     <use style="fill:#4c72b0;fill-opacity:0.8;" x="69.85471875" xlink:href="#m231c05f219" y="69.5083046875"/>
     <use style="fill:#4c72b0;fill-opacity:0.8;" x="69.85471875" xlink:href="#m231c05f219" y="57.961175"/>
     <use style="fill:#4c72b0;fill-opacity:0.8;" x="73.53884375" xlink:href="#m231c05f219" y="68.3340203125"/>
     <use style="fill:#4c72b0;fill-opacity:0.8;" x="73.53884375" xlink:href="#m231c05f219" y="72.2483015625"/>
     <use style="fill:#4c72b0;fill-opacity:0.8;" x="62.48646875" xlink:href="#m231c05f219" y="31.3440625"/>
     <use style="fill:#4c72b0;fill-opacity:0.8;" x="45.90790625" xlink:href="#m231c05f219" y="64.0283109375"/>
     <use style="fill:#4c72b0;fill-opacity:0.8;" x="45.90790625" xlink:href="#m231c05f219" y="69.8997328125"/>
     <use style="fill:#4c72b0;fill-opacity:0.8;" x="45.90790625" xlink:href="#m231c05f219" y="61.484028125"/>
     <use style="fill:#4c72b0;fill-opacity:0.8;" x="86.43328125" xlink:href="#m231c05f219" y="60.8968859375"/>
     <use style="fill:#4c72b0;fill-opacity:0.8;" x="86.43328125" xlink:href="#m231c05f219" y="64.8111671875"/>
     <use style="fill:#4c72b0;fill-opacity:0.8;" x="65.2495625" xlink:href="#m231c05f219" y="82.0340046875"/>
     <use style="fill:#4c72b0;fill-opacity:0.8;" x="65.2495625" xlink:href="#m231c05f219" y="46.4140453125"/>
     <use style="fill:#4c72b0;fill-opacity:0.8;" x="65.2495625" xlink:href="#m231c05f219" y="34.2797734375"/>
     <use style="fill:#4c72b0;fill-opacity:0.8;" x="65.2495625" xlink:href="#m231c05f219" y="31.3440625"/>
     <use style="fill:#4c72b0;fill-opacity:0.8;" x="101.16978125" xlink:href="#m231c05f219" y="84.969715625"/>
     <use style="fill:#4c72b0;fill-opacity:0.8;" x="101.16978125" xlink:href="#m231c05f219" y="81.4468625"/>
     <use style="fill:#4c72b0;fill-opacity:0.8;" x="101.16978125" xlink:href="#m231c05f219" y="85.1654296875"/>
     <use style="fill:#4c72b0;fill-opacity:0.8;" x="101.16978125" xlink:href="#m231c05f219" y="81.4468625"/>
     <use style="fill:#4c72b0;fill-opacity:0.8;" x="101.16978125" xlink:href="#m231c05f219" y="90.05828125"/>
     <use style="fill:#4c72b0;fill-opacity:0.8;" x="101.16978125" xlink:href="#m231c05f219" y="86.7311421875"/>
     <use style="fill:#4c72b0;fill-opacity:0.8;" x="101.16978125" xlink:href="#m231c05f219" y="91.4282796875"/>
     <use style="fill:#4c72b0;fill-opacity:0.8;" x="101.16978125" xlink:href="#m231c05f219" y="85.36114375"/>
     <use style="fill:#4c72b0;fill-opacity:0.8;" x="101.16978125" xlink:href="#m231c05f219" y="74.2054421875"/>
     <use style="fill:#4c72b0;fill-opacity:0.8;" x="101.16978125" xlink:href="#m231c05f219" y="82.8168609375"/>
     <use style="fill:#4c72b0;fill-opacity:0.8;" x="101.16978125" xlink:href="#m231c05f219" y="80.272578125"/>
     <use style="fill:#4c72b0;fill-opacity:0.8;" x="80.90709375" xlink:href="#m231c05f219" y="83.5997171875"/>
     <use style="fill:#4c72b0;fill-opacity:0.8;" x="80.90709375" xlink:href="#m231c05f219" y="73.0311578125"/>
     <use style="fill:#4c72b0;fill-opacity:0.8;" x="80.90709375" xlink:href="#m231c05f219" y="87.1225703125"/>
     <use style="fill:#4c72b0;fill-opacity:0.8;" x="80.90709375" xlink:href="#m231c05f219" y="84.186859375"/>
     <use style="fill:#4c72b0;fill-opacity:0.8;" x="90.11740625" xlink:href="#m231c05f219" y="76.9454390625"/>
     <use style="fill:#4c72b0;fill-opacity:0.8;" x="90.11740625" xlink:href="#m231c05f219" y="86.7311421875"/>
     <use style="fill:#4c72b0;fill-opacity:0.8;" x="90.11740625" xlink:href="#m231c05f219" y="75.3797265625"/>
     <use style="fill:#4c72b0;fill-opacity:0.8;" x="90.11740625" xlink:href="#m231c05f219" y="70.2911609375"/>
     <use style="fill:#4c72b0;fill-opacity:0.8;" x="90.11740625" xlink:href="#m231c05f219" y="41.52119375"/>
     <use style="fill:#4c72b0;fill-opacity:0.8;" x="90.11740625" xlink:href="#m231c05f219" y="31.3440625"/>
     <use style="fill:#4c72b0;fill-opacity:0.8;" x="90.11740625" xlink:href="#m231c05f219" y="55.61260625"/>
     <use style="fill:#4c72b0;fill-opacity:0.8;" x="90.11740625" xlink:href="#m231c05f219" y="67.35545"/>
     <use style="fill:#4c72b0;fill-opacity:0.8;" x="90.11740625" xlink:href="#m231c05f219" y="37.8026265625"/>
     <use style="fill:#4c72b0;fill-opacity:0.8;" x="90.11740625" xlink:href="#m231c05f219" y="67.5511640625"/>
     <use style="fill:#4c72b0;fill-opacity:0.8;" x="90.11740625" xlink:href="#m231c05f219" y="81.6425765625"/>
     <use style="fill:#4c72b0;fill-opacity:0.8;" x="90.11740625" xlink:href="#m231c05f219" y="67.1597359375"/>
     <use style="fill:#4c72b0;fill-opacity:0.8;" x="90.11740625" xlink:href="#m231c05f219" y="47.5883296875"/>
     <use style="fill:#4c72b0;fill-opacity:0.8;" x="90.11740625" xlink:href="#m231c05f219" y="34.6712015625"/>
     <use style="fill:#4c72b0;fill-opacity:0.8;" x="90.11740625" xlink:href="#m231c05f219" y="72.444015625"/>
     <use style="fill:#4c72b0;fill-opacity:0.8;" x="90.11740625" xlink:href="#m231c05f219" y="82.22971875"/>
     <use style="fill:#4c72b0;fill-opacity:0.8;" x="90.11740625" xlink:href="#m231c05f219" y="80.0768640625"/>
     <use style="fill:#4c72b0;fill-opacity:0.8;" x="90.11740625" xlink:href="#m231c05f219" y="67.5511640625"/>
     <use style="fill:#4c72b0;fill-opacity:0.8;" x="82.74915625" xlink:href="#m231c05f219" y="82.8168609375"/>
     <use style="fill:#4c72b0;fill-opacity:0.8;" x="82.74915625" xlink:href="#m231c05f219" y="83.5997171875"/>
     <use style="fill:#4c72b0;fill-opacity:0.8;" x="82.74915625" xlink:href="#m231c05f219" y="86.144"/>
     <use style="fill:#4c72b0;fill-opacity:0.8;" x="82.74915625" xlink:href="#m231c05f219" y="89.8625671875"/>
     <use style="fill:#4c72b0;fill-opacity:0.8;" x="82.74915625" xlink:href="#m231c05f219" y="85.752571875"/>
     <use style="fill:#4c72b0;fill-opacity:0.8;" x="82.74915625" xlink:href="#m231c05f219" y="82.8168609375"/>
     <use style="fill:#4c72b0;fill-opacity:0.8;" x="105.7749375" xlink:href="#m231c05f219" y="94.75541875"/>
     <use style="fill:#4c72b0;fill-opacity:0.8;" x="105.7749375" xlink:href="#m231c05f219" y="92.9939921875"/>
     <use style="fill:#4c72b0;fill-opacity:0.8;" x="105.7749375" xlink:href="#m231c05f219" y="81.6425765625"/>
     <use style="fill:#4c72b0;fill-opacity:0.8;" x="105.7749375" xlink:href="#m231c05f219" y="89.0797109375"/>
     <use style="fill:#4c72b0;fill-opacity:0.8;" x="105.7749375" xlink:href="#m231c05f219" y="81.2511484375"/>
     <use style="fill:#4c72b0;fill-opacity:0.8;" x="105.7749375" xlink:href="#m231c05f219" y="77.924009375"/>
     <use style="fill:#4c72b0;fill-opacity:0.8;" x="105.7749375" xlink:href="#m231c05f219" y="81.4468625"/>
     <use style="fill:#4c72b0;fill-opacity:0.8;" x="105.7749375" xlink:href="#m231c05f219" y="80.66400625"/>
     <use style="fill:#4c72b0;fill-opacity:0.8;" x="105.7749375" xlink:href="#m231c05f219" y="71.26973125"/>
     <use style="fill:#4c72b0;fill-opacity:0.8;" x="105.7749375" xlink:href="#m231c05f219" y="45.435475"/>
     <use style="fill:#4c72b0;fill-opacity:0.8;" x="80.90709375" xlink:href="#m231c05f219" y="86.3397140625"/>
     <use style="fill:#4c72b0;fill-opacity:0.8;" x="80.90709375" xlink:href="#m231c05f219" y="88.2968546875"/>
     <use style="fill:#4c72b0;fill-opacity:0.8;" x="76.3019375" xlink:href="#m231c05f219" y="43.08690625"/>
     <use style="fill:#4c72b0;fill-opacity:0.8;" x="49.59203125" xlink:href="#m231c05f219" y="31.3440625"/>
     <use style="fill:#4c72b0;fill-opacity:0.8;" x="49.59203125" xlink:href="#m231c05f219" y="58.74403125"/>
     <use style="fill:#4c72b0;fill-opacity:0.8;" x="49.59203125" xlink:href="#m231c05f219" y="70.2911609375"/>
     <use style="fill:#4c72b0;fill-opacity:0.8;" x="49.59203125" xlink:href="#m231c05f219" y="63.049740625"/>
     <use style="fill:#4c72b0;fill-opacity:0.8;" x="49.59203125" xlink:href="#m231c05f219" y="44.8483328125"/>
     <use style="fill:#4c72b0;fill-opacity:0.8;" x="49.59203125" xlink:href="#m231c05f219" y="33.69263125"/>
     <use style="fill:#4c72b0;fill-opacity:0.8;" x="49.59203125" xlink:href="#m231c05f219" y="68.529734375"/>
     <use style="fill:#4c72b0;fill-opacity:0.8;" x="49.59203125" xlink:href="#m231c05f219" y="57.7654609375"/>
     <use style="fill:#4c72b0;fill-opacity:0.8;" x="49.59203125" xlink:href="#m231c05f219" y="84.5782875"/>
     <use style="fill:#4c72b0;fill-opacity:0.8;" x="49.59203125" xlink:href="#m231c05f219" y="69.1168765625"/>
     <use style="fill:#4c72b0;fill-opacity:0.8;" x="49.59203125" xlink:href="#m231c05f219" y="31.3440625"/>
     <use style="fill:#4c72b0;fill-opacity:0.8;" x="49.59203125" xlink:href="#m231c05f219" y="44.0654765625"/>
     <use style="fill:#4c72b0;fill-opacity:0.8;" x="101.16978125" xlink:href="#m231c05f219" y="88.6882828125"/>
     <use style="fill:#4c72b0;fill-opacity:0.8;" x="101.16978125" xlink:href="#m231c05f219" y="87.9054265625"/>
     <use style="fill:#4c72b0;fill-opacity:0.8;" x="101.16978125" xlink:href="#m231c05f219" y="79.88115"/>
     <use style="fill:#4c72b0;fill-opacity:0.8;" x="101.16978125" xlink:href="#m231c05f219" y="81.4468625"/>
     <use style="fill:#4c72b0;fill-opacity:0.8;" x="101.16978125" xlink:href="#m231c05f219" y="60.30974375"/>
     <use style="fill:#4c72b0;fill-opacity:0.8;" x="91.95946875" xlink:href="#m231c05f219" y="65.7897375"/>
     <use style="fill:#4c72b0;fill-opacity:0.8;" x="91.95946875" xlink:href="#m231c05f219" y="66.57259375"/>
     <use style="fill:#4c72b0;fill-opacity:0.8;" x="91.95946875" xlink:href="#m231c05f219" y="64.224025"/>
     <use style="fill:#4c72b0;fill-opacity:0.8;" x="91.95946875" xlink:href="#m231c05f219" y="64.4197390625"/>
     <use style="fill:#4c72b0;fill-opacity:0.8;" x="91.95946875" xlink:href="#m231c05f219" y="72.2483015625"/>
     <use style="fill:#4c72b0;fill-opacity:0.8;" x="67.091625" xlink:href="#m231c05f219" y="60.5054578125"/>
     <use style="fill:#4c72b0;fill-opacity:0.8;" x="67.091625" xlink:href="#m231c05f219" y="40.346909375"/>
     <use style="fill:#4c72b0;fill-opacity:0.8;" x="67.091625" xlink:href="#m231c05f219" y="59.918315625"/>
     <use style="fill:#4c72b0;fill-opacity:0.8;" x="67.091625" xlink:href="#m231c05f219" y="39.172625"/>
     <use style="fill:#4c72b0;fill-opacity:0.8;" x="55.11821875" xlink:href="#m231c05f219" y="31.3440625"/>
     <use style="fill:#4c72b0;fill-opacity:0.8;" x="70.77575" xlink:href="#m231c05f219" y="66.181165625"/>
     <use style="fill:#4c72b0;fill-opacity:0.8;" x="70.77575" xlink:href="#m231c05f219" y="86.144"/>
     <use style="fill:#4c72b0;fill-opacity:0.8;" x="97.48565625" xlink:href="#m231c05f219" y="89.8625671875"/>
     <use style="fill:#4c72b0;fill-opacity:0.8;" x="82.74915625" xlink:href="#m231c05f219" y="83.79543125"/>
     <use style="fill:#4c72b0;fill-opacity:0.8;" x="82.74915625" xlink:href="#m231c05f219" y="85.5568578125"/>
     <use style="fill:#4c72b0;fill-opacity:0.8;" x="82.74915625" xlink:href="#m231c05f219" y="80.66400625"/>
     <use style="fill:#4c72b0;fill-opacity:0.8;" x="106.69596875" xlink:href="#m231c05f219" y="73.4225859375"/>
     <use style="fill:#4c72b0;fill-opacity:0.8;" x="106.69596875" xlink:href="#m231c05f219" y="56.1997484375"/>
     <use style="fill:#4c72b0;fill-opacity:0.8;" x="106.69596875" xlink:href="#m231c05f219" y="74.5968703125"/>
     <use style="fill:#4c72b0;fill-opacity:0.8;" x="77.22296875" xlink:href="#m231c05f219" y="82.4254328125"/>
     <use style="fill:#4c72b0;fill-opacity:0.8;" x="77.22296875" xlink:href="#m231c05f219" y="86.7311421875"/>
     <use style="fill:#4c72b0;fill-opacity:0.8;" x="77.22296875" xlink:href="#m231c05f219" y="73.226871875"/>
     <use style="fill:#4c72b0;fill-opacity:0.8;" x="77.22296875" xlink:href="#m231c05f219" y="76.1625828125"/>
     <use style="fill:#4c72b0;fill-opacity:0.8;" x="77.22296875" xlink:href="#m231c05f219" y="89.4711390625"/>
     <use style="fill:#4c72b0;fill-opacity:0.8;" x="66.17059375" xlink:href="#m231c05f219" y="85.1654296875"/>
     <use style="fill:#4c72b0;fill-opacity:0.8;" x="66.17059375" xlink:href="#m231c05f219" y="72.444015625"/>
     <use style="fill:#4c72b0;fill-opacity:0.8;" x="66.17059375" xlink:href="#m231c05f219" y="80.66400625"/>
     <use style="fill:#4c72b0;fill-opacity:0.8;" x="78.144" xlink:href="#m231c05f219" y="86.144"/>
     <use style="fill:#4c72b0;fill-opacity:0.8;" x="78.144" xlink:href="#m231c05f219" y="77.53258125"/>
     <use style="fill:#4c72b0;fill-opacity:0.8;" x="78.144" xlink:href="#m231c05f219" y="64.4197390625"/>
     <use style="fill:#4c72b0;fill-opacity:0.8;" x="99.32771875" xlink:href="#m231c05f219" y="58.5483171875"/>
     <use style="fill:#4c72b0;fill-opacity:0.8;" x="99.32771875" xlink:href="#m231c05f219" y="73.6183"/>
     <use style="fill:#4c72b0;fill-opacity:0.8;" x="99.32771875" xlink:href="#m231c05f219" y="63.832596875"/>
     <use style="fill:#4c72b0;fill-opacity:0.8;" x="99.32771875" xlink:href="#m231c05f219" y="74.009728125"/>
     <use style="fill:#4c72b0;fill-opacity:0.8;" x="99.32771875" xlink:href="#m231c05f219" y="84.5782875"/>
     <use style="fill:#4c72b0;fill-opacity:0.8;" x="99.32771875" xlink:href="#m231c05f219" y="89.4711390625"/>
     <use style="fill:#4c72b0;fill-opacity:0.8;" x="99.32771875" xlink:href="#m231c05f219" y="97.6911296875"/>
     <use style="fill:#4c72b0;fill-opacity:0.8;" x="99.32771875" xlink:href="#m231c05f219" y="85.9482859375"/>
     <use style="fill:#4c72b0;fill-opacity:0.8;" x="99.32771875" xlink:href="#m231c05f219" y="91.232565625"/>
     <use style="fill:#4c72b0;fill-opacity:0.8;" x="99.32771875" xlink:href="#m231c05f219" y="86.92685625"/>
     <use style="fill:#4c72b0;fill-opacity:0.8;" x="99.32771875" xlink:href="#m231c05f219" y="82.621146875"/>
     <use style="fill:#4c72b0;fill-opacity:0.8;" x="99.32771875" xlink:href="#m231c05f219" y="97.495415625"/>
     <use style="fill:#4c72b0;fill-opacity:0.8;" x="99.32771875" xlink:href="#m231c05f219" y="94.363990625"/>
     <use style="fill:#4c72b0;fill-opacity:0.8;" x="99.32771875" xlink:href="#m231c05f219" y="90.449709375"/>
     <use style="fill:#4c72b0;fill-opacity:0.8;" x="99.32771875" xlink:href="#m231c05f219" y="83.9911453125"/>
     <use style="fill:#4c72b0;fill-opacity:0.8;" x="99.32771875" xlink:href="#m231c05f219" y="88.101140625"/>
     <use style="fill:#4c72b0;fill-opacity:0.8;" x="110.38009375" xlink:href="#m231c05f219" y="82.621146875"/>
     <use style="fill:#4c72b0;fill-opacity:0.8;" x="110.38009375" xlink:href="#m231c05f219" y="83.9911453125"/>
     <use style="fill:#4c72b0;fill-opacity:0.8;" x="110.38009375" xlink:href="#m231c05f219" y="89.275425"/>
     <use style="fill:#4c72b0;fill-opacity:0.8;" x="110.38009375" xlink:href="#m231c05f219" y="92.9939921875"/>
     <use style="fill:#4c72b0;fill-opacity:0.8;" x="110.38009375" xlink:href="#m231c05f219" y="80.272578125"/>
     <use style="fill:#4c72b0;fill-opacity:0.8;" x="110.38009375" xlink:href="#m231c05f219" y="81.055434375"/>
     <use style="fill:#4c72b0;fill-opacity:0.8;" x="110.38009375" xlink:href="#m231c05f219" y="84.186859375"/>
     <use style="fill:#4c72b0;fill-opacity:0.8;" x="110.38009375" xlink:href="#m231c05f219" y="85.752571875"/>
     <use style="fill:#4c72b0;fill-opacity:0.8;" x="85.51225" xlink:href="#m231c05f219" y="91.4282796875"/>
     <use style="fill:#4c72b0;fill-opacity:0.8;" x="85.51225" xlink:href="#m231c05f219" y="84.969715625"/>
     <use style="fill:#4c72b0;fill-opacity:0.8;" x="85.51225" xlink:href="#m231c05f219" y="90.449709375"/>
     <use style="fill:#4c72b0;fill-opacity:0.8;" x="85.51225" xlink:href="#m231c05f219" y="95.7339890625"/>
     <use style="fill:#4c72b0;fill-opacity:0.8;" x="85.51225" xlink:href="#m231c05f219" y="91.232565625"/>
     <use style="fill:#4c72b0;fill-opacity:0.8;" x="115.90628125" xlink:href="#m231c05f219" y="85.752571875"/>
     <use style="fill:#4c72b0;fill-opacity:0.8;" x="115.90628125" xlink:href="#m231c05f219" y="88.6882828125"/>
     <use style="fill:#4c72b0;fill-opacity:0.8;" x="115.90628125" xlink:href="#m231c05f219" y="87.9054265625"/>
     <use style="fill:#4c72b0;fill-opacity:0.8;" x="115.90628125" xlink:href="#m231c05f219" y="91.0368515625"/>
     <use style="fill:#4c72b0;fill-opacity:0.8;" x="115.90628125" xlink:href="#m231c05f219" y="92.9939921875"/>
     <use style="fill:#4c72b0;fill-opacity:0.8;" x="115.90628125" xlink:href="#m231c05f219" y="88.883996875"/>
     <use style="fill:#4c72b0;fill-opacity:0.8;" x="115.90628125" xlink:href="#m231c05f219" y="92.015421875"/>
     <use style="fill:#4c72b0;fill-opacity:0.8;" x="115.90628125" xlink:href="#m231c05f219" y="92.6025640625"/>
     <use style="fill:#4c72b0;fill-opacity:0.8;" x="72.6178125" xlink:href="#m231c05f219" y="65.2025953125"/>
     <use style="fill:#4c72b0;fill-opacity:0.8;" x="76.3019375" xlink:href="#m231c05f219" y="96.9082734375"/>
     <use style="fill:#4c72b0;fill-opacity:0.8;" x="91.95946875" xlink:href="#m231c05f219" y="82.4254328125"/>
     <use style="fill:#4c72b0;fill-opacity:0.8;" x="91.95946875" xlink:href="#m231c05f219" y="68.13830625"/>
     <use style="fill:#4c72b0;fill-opacity:0.8;" x="103.01184375" xlink:href="#m231c05f219" y="94.9511328125"/>
     <use style="fill:#4c72b0;fill-opacity:0.8;" x="103.01184375" xlink:href="#m231c05f219" y="95.538275"/>
     <use style="fill:#4c72b0;fill-opacity:0.8;" x="94.7225625" xlink:href="#m231c05f219" y="83.9911453125"/>
     <use style="fill:#4c72b0;fill-opacity:0.8;" x="86.43328125" xlink:href="#m231c05f219" y="81.2511484375"/>
     <use style="fill:#4c72b0;fill-opacity:0.8;" x="111.301125" xlink:href="#m231c05f219" y="77.141153125"/>
     <use style="fill:#4c72b0;fill-opacity:0.8;" x="111.301125" xlink:href="#m231c05f219" y="84.3825734375"/>
     <use style="fill:#4c72b0;fill-opacity:0.8;" x="98.4066875" xlink:href="#m231c05f219" y="82.0340046875"/>
     <use style="fill:#4c72b0;fill-opacity:0.8;" x="98.4066875" xlink:href="#m231c05f219" y="92.798278125"/>
     <use style="fill:#4c72b0;fill-opacity:0.8;" x="86.43328125" xlink:href="#m231c05f219" y="70.2911609375"/>
     <use style="fill:#4c72b0;fill-opacity:0.8;" x="132.48484375" xlink:href="#m231c05f219" y="93.581134375"/>
     <use style="fill:#4c72b0;fill-opacity:0.8;" x="132.48484375" xlink:href="#m231c05f219" y="88.883996875"/>
     <use style="fill:#4c72b0;fill-opacity:0.8;" x="115.90628125" xlink:href="#m231c05f219" y="94.363990625"/>
     <use style="fill:#4c72b0;fill-opacity:0.8;" x="115.90628125" xlink:href="#m231c05f219" y="86.7311421875"/>
     <use style="fill:#4c72b0;fill-opacity:0.8;" x="115.90628125" xlink:href="#m231c05f219" y="84.7740015625"/>
     <use style="fill:#4c72b0;fill-opacity:0.8;" x="115.90628125" xlink:href="#m231c05f219" y="84.969715625"/>
     <use style="fill:#4c72b0;fill-opacity:0.8;" x="115.90628125" xlink:href="#m231c05f219" y="80.272578125"/>
     <use style="fill:#4c72b0;fill-opacity:0.8;" x="115.90628125" xlink:href="#m231c05f219" y="90.2539953125"/>
     <use style="fill:#4c72b0;fill-opacity:0.8;" x="115.90628125" xlink:href="#m231c05f219" y="88.49256875"/>
     <use style="fill:#4c72b0;fill-opacity:0.8;" x="115.90628125" xlink:href="#m231c05f219" y="96.32113125"/>
     <use style="fill:#4c72b0;fill-opacity:0.8;" x="115.90628125" xlink:href="#m231c05f219" y="86.3397140625"/>
     <use style="fill:#4c72b0;fill-opacity:0.8;" x="115.90628125" xlink:href="#m231c05f219" y="75.3797265625"/>
     <use style="fill:#4c72b0;fill-opacity:0.8;" x="115.90628125" xlink:href="#m231c05f219" y="86.3397140625"/>
     <use style="fill:#4c72b0;fill-opacity:0.8;" x="115.90628125" xlink:href="#m231c05f219" y="83.9911453125"/>
     <use style="fill:#4c72b0;fill-opacity:0.8;" x="115.90628125" xlink:href="#m231c05f219" y="31.3440625"/>
     <use style="fill:#4c72b0;fill-opacity:0.8;" x="115.90628125" xlink:href="#m231c05f219" y="31.3440625"/>
     <use style="fill:#4c72b0;fill-opacity:0.8;" x="115.90628125" xlink:href="#m231c05f219" y="31.3440625"/>
     <use style="fill:#4c72b0;fill-opacity:0.8;" x="115.90628125" xlink:href="#m231c05f219" y="31.3440625"/>
     <use style="fill:#4c72b0;fill-opacity:0.8;" x="115.90628125" xlink:href="#m231c05f219" y="31.3440625"/>
     <use style="fill:#4c72b0;fill-opacity:0.8;" x="115.90628125" xlink:href="#m231c05f219" y="102.192553125"/>
     <use style="fill:#4c72b0;fill-opacity:0.8;" x="115.90628125" xlink:href="#m231c05f219" y="102.192553125"/>
     <use style="fill:#4c72b0;fill-opacity:0.8;" x="115.90628125" xlink:href="#m231c05f219" y="99.843984375"/>
     <use style="fill:#4c72b0;fill-opacity:0.8;" x="115.90628125" xlink:href="#m231c05f219" y="101.996839062"/>
     <use style="fill:#4c72b0;fill-opacity:0.8;" x="115.90628125" xlink:href="#m231c05f219" y="103.171123437"/>
     <use style="fill:#4c72b0;fill-opacity:0.8;" x="115.90628125" xlink:href="#m231c05f219" y="103.562551562"/>
     <use style="fill:#4c72b0;fill-opacity:0.8;" x="115.90628125" xlink:href="#m231c05f219" y="109.238259375"/>
     <use style="fill:#4c72b0;fill-opacity:0.8;" x="115.90628125" xlink:href="#m231c05f219" y="108.84683125"/>
     <use style="fill:#4c72b0;fill-opacity:0.8;" x="115.90628125" xlink:href="#m231c05f219" y="107.868260937"/>
     <use style="fill:#4c72b0;fill-opacity:0.8;" x="115.90628125" xlink:href="#m231c05f219" y="107.085404687"/>
     <use style="fill:#4c72b0;fill-opacity:0.8;" x="115.90628125" xlink:href="#m231c05f219" y="105.128264062"/>
     <use style="fill:#4c72b0;fill-opacity:0.8;" x="115.90628125" xlink:href="#m231c05f219" y="111.97825625"/>
     <use style="fill:#4c72b0;fill-opacity:0.8;" x="115.90628125" xlink:href="#m231c05f219" y="115.10968125"/>
     <use style="fill:#4c72b0;fill-opacity:0.8;" x="115.90628125" xlink:href="#m231c05f219" y="108.651117187"/>
     <use style="fill:#4c72b0;fill-opacity:0.8;" x="115.90628125" xlink:href="#m231c05f219" y="114.718253125"/>
     <use style="fill:#4c72b0;fill-opacity:0.8;" x="115.90628125" xlink:href="#m231c05f219" y="109.238259375"/>
     <use style="fill:#4c72b0;fill-opacity:0.8;" x="115.90628125" xlink:href="#m231c05f219" y="106.693976562"/>
     <use style="fill:#4c72b0;fill-opacity:0.8;" x="115.90628125" xlink:href="#m231c05f219" y="99.6482703125"/>
     <use style="fill:#4c72b0;fill-opacity:0.8;" x="115.90628125" xlink:href="#m231c05f219" y="83.79543125"/>
     <use style="fill:#4c72b0;fill-opacity:0.8;" x="115.90628125" xlink:href="#m231c05f219" y="110.216829687"/>
     <use style="fill:#4c72b0;fill-opacity:0.8;" x="115.90628125" xlink:href="#m231c05f219" y="102.192553125"/>
     <use style="fill:#4c72b0;fill-opacity:0.8;" x="115.90628125" xlink:href="#m231c05f219" y="104.345407812"/>
     <use style="fill:#4c72b0;fill-opacity:0.8;" x="115.90628125" xlink:href="#m231c05f219" y="103.562551562"/>
     <use style="fill:#4c72b0;fill-opacity:0.8;" x="115.90628125" xlink:href="#m231c05f219" y="104.736835937"/>
     <use style="fill:#4c72b0;fill-opacity:0.8;" x="115.90628125" xlink:href="#m231c05f219" y="112.565398437"/>
     <use style="fill:#4c72b0;fill-opacity:0.8;" x="115.90628125" xlink:href="#m231c05f219" y="119.415390625"/>
     <use style="fill:#4c72b0;fill-opacity:0.8;" x="115.90628125" xlink:href="#m231c05f219" y="116.871107812"/>
     <use style="fill:#4c72b0;fill-opacity:0.8;" x="115.90628125" xlink:href="#m231c05f219" y="118.24110625"/>
     <use style="fill:#4c72b0;fill-opacity:0.8;" x="115.90628125" xlink:href="#m231c05f219" y="115.10968125"/>
     <use style="fill:#4c72b0;fill-opacity:0.8;" x="115.90628125" xlink:href="#m231c05f219" y="105.519692187"/>
     <use style="fill:#4c72b0;fill-opacity:0.8;" x="115.90628125" xlink:href="#m231c05f219" y="112.956826562"/>
     <use style="fill:#4c72b0;fill-opacity:0.8;" x="115.90628125" xlink:href="#m231c05f219" y="112.565398437"/>
     <use style="fill:#4c72b0;fill-opacity:0.8;" x="115.90628125" xlink:href="#m231c05f219" y="119.415390625"/>
     <use style="fill:#4c72b0;fill-opacity:0.8;" x="115.90628125" xlink:href="#m231c05f219" y="105.911120312"/>
     <use style="fill:#4c72b0;fill-opacity:0.8;" x="115.90628125" xlink:href="#m231c05f219" y="74.5968703125"/>
     <use style="fill:#4c72b0;fill-opacity:0.8;" x="115.90628125" xlink:href="#m231c05f219" y="95.538275"/>
     <use style="fill:#4c72b0;fill-opacity:0.8;" x="115.90628125" xlink:href="#m231c05f219" y="75.3797265625"/>
     <use style="fill:#4c72b0;fill-opacity:0.8;" x="115.90628125" xlink:href="#m231c05f219" y="99.843984375"/>
     <use style="fill:#4c72b0;fill-opacity:0.8;" x="115.90628125" xlink:href="#m231c05f219" y="95.538275"/>
     <use style="fill:#4c72b0;fill-opacity:0.8;" x="115.90628125" xlink:href="#m231c05f219" y="94.1682765625"/>
     <use style="fill:#4c72b0;fill-opacity:0.8;" x="115.90628125" xlink:href="#m231c05f219" y="97.2997015625"/>
     <use style="fill:#4c72b0;fill-opacity:0.8;" x="115.90628125" xlink:href="#m231c05f219" y="115.501109375"/>
     <use style="fill:#4c72b0;fill-opacity:0.8;" x="115.90628125" xlink:href="#m231c05f219" y="115.10968125"/>
     <use style="fill:#4c72b0;fill-opacity:0.8;" x="115.90628125" xlink:href="#m231c05f219" y="114.522539062"/>
     <use style="fill:#4c72b0;fill-opacity:0.8;" x="115.90628125" xlink:href="#m231c05f219" y="108.84683125"/>
     <use style="fill:#4c72b0;fill-opacity:0.8;" x="115.90628125" xlink:href="#m231c05f219" y="111.97825625"/>
     <use style="fill:#4c72b0;fill-opacity:0.8;" x="115.90628125" xlink:href="#m231c05f219" y="112.7611125"/>
     <use style="fill:#4c72b0;fill-opacity:0.8;" x="115.90628125" xlink:href="#m231c05f219" y="96.5168453125"/>
     <use style="fill:#4c72b0;fill-opacity:0.8;" x="115.90628125" xlink:href="#m231c05f219" y="101.409696875"/>
     <use style="fill:#4c72b0;fill-opacity:0.8;" x="115.90628125" xlink:href="#m231c05f219" y="88.49256875"/>
     <use style="fill:#4c72b0;fill-opacity:0.8;" x="115.90628125" xlink:href="#m231c05f219" y="102.975409375"/>
     <use style="fill:#4c72b0;fill-opacity:0.8;" x="115.90628125" xlink:href="#m231c05f219" y="106.302548437"/>
     <use style="fill:#4c72b0;fill-opacity:0.8;" x="115.90628125" xlink:href="#m231c05f219" y="112.956826562"/>
     <use style="fill:#4c72b0;fill-opacity:0.8;" x="115.90628125" xlink:href="#m231c05f219" y="109.238259375"/>
     <use style="fill:#4c72b0;fill-opacity:0.8;" x="115.90628125" xlink:href="#m231c05f219" y="107.868260937"/>
     <use style="fill:#4c72b0;fill-opacity:0.8;" x="115.90628125" xlink:href="#m231c05f219" y="107.672546875"/>
     <use style="fill:#4c72b0;fill-opacity:0.8;" x="115.90628125" xlink:href="#m231c05f219" y="110.608257812"/>
     <use style="fill:#4c72b0;fill-opacity:0.8;" x="115.90628125" xlink:href="#m231c05f219" y="100.822554687"/>
     <use style="fill:#4c72b0;fill-opacity:0.8;" x="115.90628125" xlink:href="#m231c05f219" y="101.605410937"/>
     <use style="fill:#4c72b0;fill-opacity:0.8;" x="115.90628125" xlink:href="#m231c05f219" y="97.6911296875"/>
     <use style="fill:#4c72b0;fill-opacity:0.8;" x="115.90628125" xlink:href="#m231c05f219" y="101.213982812"/>
     <use style="fill:#4c72b0;fill-opacity:0.8;" x="115.90628125" xlink:href="#m231c05f219" y="106.302548437"/>
     <use style="fill:#4c72b0;fill-opacity:0.8;" x="115.90628125" xlink:href="#m231c05f219" y="102.975409375"/>
     <use style="fill:#4c72b0;fill-opacity:0.8;" x="115.90628125" xlink:href="#m231c05f219" y="110.41254375"/>
     <use style="fill:#4c72b0;fill-opacity:0.8;" x="115.90628125" xlink:href="#m231c05f219" y="112.173970312"/>
     <use style="fill:#4c72b0;fill-opacity:0.8;" x="115.90628125" xlink:href="#m231c05f219" y="112.7611125"/>
     <use style="fill:#4c72b0;fill-opacity:0.8;" x="115.90628125" xlink:href="#m231c05f219" y="104.14969375"/>
     <use style="fill:#4c72b0;fill-opacity:0.8;" x="115.90628125" xlink:href="#m231c05f219" y="108.651117187"/>
     <use style="fill:#4c72b0;fill-opacity:0.8;" x="115.90628125" xlink:href="#m231c05f219" y="95.7339890625"/>
     <use style="fill:#4c72b0;fill-opacity:0.8;" x="115.90628125" xlink:href="#m231c05f219" y="93.18970625"/>
     <use style="fill:#4c72b0;fill-opacity:0.8;" x="115.90628125" xlink:href="#m231c05f219" y="99.061128125"/>
     <use style="fill:#4c72b0;fill-opacity:0.8;" x="115.90628125" xlink:href="#m231c05f219" y="108.063975"/>
     <use style="fill:#4c72b0;fill-opacity:0.8;" x="115.90628125" xlink:href="#m231c05f219" y="106.106834375"/>
     <use style="fill:#4c72b0;fill-opacity:0.8;" x="115.90628125" xlink:href="#m231c05f219" y="100.039698437"/>
     <use style="fill:#4c72b0;fill-opacity:0.8;" x="115.90628125" xlink:href="#m231c05f219" y="104.541121875"/>
     <use style="fill:#4c72b0;fill-opacity:0.8;" x="115.90628125" xlink:href="#m231c05f219" y="101.605410937"/>
     <use style="fill:#4c72b0;fill-opacity:0.8;" x="115.90628125" xlink:href="#m231c05f219" y="103.758265625"/>
     <use style="fill:#4c72b0;fill-opacity:0.8;" x="115.90628125" xlink:href="#m231c05f219" y="102.975409375"/>
     <use style="fill:#4c72b0;fill-opacity:0.8;" x="115.90628125" xlink:href="#m231c05f219" y="99.45255625"/>
     <use style="fill:#4c72b0;fill-opacity:0.8;" x="115.90628125" xlink:href="#m231c05f219" y="97.6911296875"/>
     <use style="fill:#4c72b0;fill-opacity:0.8;" x="115.90628125" xlink:href="#m231c05f219" y="94.363990625"/>
     <use style="fill:#4c72b0;fill-opacity:0.8;" x="115.90628125" xlink:href="#m231c05f219" y="100.039698437"/>
     <use style="fill:#4c72b0;fill-opacity:0.8;" x="115.90628125" xlink:href="#m231c05f219" y="101.605410937"/>
     <use style="fill:#4c72b0;fill-opacity:0.8;" x="115.90628125" xlink:href="#m231c05f219" y="104.345407812"/>
     <use style="fill:#4c72b0;fill-opacity:0.8;" x="115.90628125" xlink:href="#m231c05f219" y="102.779695312"/>
     <use style="fill:#4c72b0;fill-opacity:0.8;" x="115.90628125" xlink:href="#m231c05f219" y="100.039698437"/>
     <use style="fill:#4c72b0;fill-opacity:0.8;" x="115.90628125" xlink:href="#m231c05f219" y="90.05828125"/>
     <use style="fill:#4c72b0;fill-opacity:0.8;" x="115.90628125" xlink:href="#m231c05f219" y="97.1039875"/>
     <use style="fill:#4c72b0;fill-opacity:0.8;" x="115.90628125" xlink:href="#m231c05f219" y="94.5597046875"/>
     <use style="fill:#4c72b0;fill-opacity:0.8;" x="115.90628125" xlink:href="#m231c05f219" y="91.0368515625"/>
     <use style="fill:#4c72b0;fill-opacity:0.8;" x="115.90628125" xlink:href="#m231c05f219" y="89.666853125"/>
     <use style="fill:#4c72b0;fill-opacity:0.8;" x="115.90628125" xlink:href="#m231c05f219" y="87.318284375"/>
     <use style="fill:#4c72b0;fill-opacity:0.8;" x="115.90628125" xlink:href="#m231c05f219" y="90.2539953125"/>
     <use style="fill:#4c72b0;fill-opacity:0.8;" x="115.90628125" xlink:href="#m231c05f219" y="92.015421875"/>
     <use style="fill:#4c72b0;fill-opacity:0.8;" x="115.90628125" xlink:href="#m231c05f219" y="91.8197078125"/>
     <use style="fill:#4c72b0;fill-opacity:0.8;" x="115.90628125" xlink:href="#m231c05f219" y="91.8197078125"/>
     <use style="fill:#4c72b0;fill-opacity:0.8;" x="115.90628125" xlink:href="#m231c05f219" y="89.8625671875"/>
     <use style="fill:#4c72b0;fill-opacity:0.8;" x="115.90628125" xlink:href="#m231c05f219" y="90.2539953125"/>
     <use style="fill:#4c72b0;fill-opacity:0.8;" x="115.90628125" xlink:href="#m231c05f219" y="90.8411375"/>
     <use style="fill:#4c72b0;fill-opacity:0.8;" x="115.90628125" xlink:href="#m231c05f219" y="83.79543125"/>
     <use style="fill:#4c72b0;fill-opacity:0.8;" x="115.90628125" xlink:href="#m231c05f219" y="70.878303125"/>
     <use style="fill:#4c72b0;fill-opacity:0.8;" x="115.90628125" xlink:href="#m231c05f219" y="102.192553125"/>
     <use style="fill:#4c72b0;fill-opacity:0.8;" x="115.90628125" xlink:href="#m231c05f219" y="103.171123437"/>
     <use style="fill:#4c72b0;fill-opacity:0.8;" x="115.90628125" xlink:href="#m231c05f219" y="96.5168453125"/>
     <use style="fill:#4c72b0;fill-opacity:0.8;" x="115.90628125" xlink:href="#m231c05f219" y="105.71540625"/>
     <use style="fill:#4c72b0;fill-opacity:0.8;" x="115.90628125" xlink:href="#m231c05f219" y="100.626840625"/>
     <use style="fill:#4c72b0;fill-opacity:0.8;" x="115.90628125" xlink:href="#m231c05f219" y="87.318284375"/>
     <use style="fill:#4c72b0;fill-opacity:0.8;" x="115.90628125" xlink:href="#m231c05f219" y="84.186859375"/>
     <use style="fill:#4c72b0;fill-opacity:0.8;" x="115.90628125" xlink:href="#m231c05f219" y="82.8168609375"/>
     <use style="fill:#4c72b0;fill-opacity:0.8;" x="115.90628125" xlink:href="#m231c05f219" y="80.272578125"/>
     <use style="fill:#4c72b0;fill-opacity:0.8;" x="115.90628125" xlink:href="#m231c05f219" y="86.535428125"/>
     <use style="fill:#4c72b0;fill-opacity:0.8;" x="115.90628125" xlink:href="#m231c05f219" y="88.883996875"/>
     <use style="fill:#4c72b0;fill-opacity:0.8;" x="115.90628125" xlink:href="#m231c05f219" y="87.7097125"/>
     <use style="fill:#4c72b0;fill-opacity:0.8;" x="115.90628125" xlink:href="#m231c05f219" y="91.8197078125"/>
     <use style="fill:#4c72b0;fill-opacity:0.8;" x="115.90628125" xlink:href="#m231c05f219" y="88.883996875"/>
     <use style="fill:#4c72b0;fill-opacity:0.8;" x="114.98525" xlink:href="#m231c05f219" y="99.45255625"/>
     <use style="fill:#4c72b0;fill-opacity:0.8;" x="114.98525" xlink:href="#m231c05f219" y="115.501109375"/>
     <use style="fill:#4c72b0;fill-opacity:0.8;" x="114.98525" xlink:href="#m231c05f219" y="113.348254687"/>
     <use style="fill:#4c72b0;fill-opacity:0.8;" x="114.98525" xlink:href="#m231c05f219" y="102.58398125"/>
     <use style="fill:#4c72b0;fill-opacity:0.8;" x="114.98525" xlink:href="#m231c05f219" y="89.8625671875"/>
     <use style="fill:#4c72b0;fill-opacity:0.8;" x="106.69596875" xlink:href="#m231c05f219" y="86.535428125"/>
     <use style="fill:#4c72b0;fill-opacity:0.8;" x="106.69596875" xlink:href="#m231c05f219" y="81.2511484375"/>
     <use style="fill:#4c72b0;fill-opacity:0.8;" x="106.69596875" xlink:href="#m231c05f219" y="83.9911453125"/>
     <use style="fill:#4c72b0;fill-opacity:0.8;" x="106.69596875" xlink:href="#m231c05f219" y="90.6454234375"/>
     <use style="fill:#4c72b0;fill-opacity:0.8;" x="106.69596875" xlink:href="#m231c05f219" y="93.3854203125"/>
     <use style="fill:#4c72b0;fill-opacity:0.8;" x="106.69596875" xlink:href="#m231c05f219" y="87.7097125"/>
     <use style="fill:#4c72b0;fill-opacity:0.8;" x="106.69596875" xlink:href="#m231c05f219" y="94.9511328125"/>
     <use style="fill:#4c72b0;fill-opacity:0.8;" x="106.69596875" xlink:href="#m231c05f219" y="96.32113125"/>
     <use style="fill:#4c72b0;fill-opacity:0.8;" x="123.27453125" xlink:href="#m231c05f219" y="85.36114375"/>
     <use style="fill:#4c72b0;fill-opacity:0.8;" x="123.27453125" xlink:href="#m231c05f219" y="88.883996875"/>
     <use style="fill:#4c72b0;fill-opacity:0.8;" x="123.27453125" xlink:href="#m231c05f219" y="82.4254328125"/>
     <use style="fill:#4c72b0;fill-opacity:0.8;" x="123.27453125" xlink:href="#m231c05f219" y="86.144"/>
     <use style="fill:#4c72b0;fill-opacity:0.8;" x="123.27453125" xlink:href="#m231c05f219" y="105.911120312"/>
    </g>
   </g>
   <g id="PolyCollection_1">
    <defs>
     <path d="M 40.381719 -114.801149 
L 40.381719 -105.08348 
L 41.49812 -104.649795 
L 42.614522 -104.210774 
L 43.730923 -103.762006 
L 44.847325 -103.323727 
L 45.963726 -102.889013 
L 47.080128 -102.44992 
L 48.196529 -102.004567 
L 49.312931 -101.58647 
L 50.429332 -101.155912 
L 51.545734 -100.731353 
L 52.662135 -100.306794 
L 53.778537 -99.879257 
L 54.894938 -99.445572 
L 56.01134 -99.011887 
L 57.127741 -98.557957 
L 58.244143 -98.111531 
L 59.360545 -97.676576 
L 60.476946 -97.242804 
L 61.593348 -96.808571 
L 62.709749 -96.364728 
L 63.826151 -95.917664 
L 64.942552 -95.4706 
L 66.058954 -95.023536 
L 67.175355 -94.570357 
L 68.291757 -94.112265 
L 69.408158 -93.672734 
L 70.52456 -93.214467 
L 71.640961 -92.739699 
L 72.757363 -92.28874 
L 73.873764 -91.843387 
L 74.990166 -91.387 
L 76.106567 -90.950686 
L 77.222969 -90.522625 
L 78.33937 -90.059038 
L 79.455772 -89.621498 
L 80.572173 -89.175295 
L 81.688575 -88.747466 
L 82.804976 -88.264721 
L 83.921378 -87.80227 
L 85.037779 -87.328761 
L 86.154181 -86.877727 
L 87.270582 -86.427093 
L 88.386984 -85.98932 
L 89.503385 -85.53591 
L 90.619787 -85.081832 
L 91.736188 -84.623428 
L 92.85259 -84.171778 
L 93.968991 -83.710182 
L 95.085393 -83.239152 
L 96.201795 -82.770551 
L 97.318196 -82.299844 
L 98.434598 -81.820278 
L 99.550999 -81.346405 
L 100.667401 -80.850555 
L 101.783802 -80.346579 
L 102.900204 -79.840616 
L 104.016605 -79.321149 
L 105.133007 -78.822414 
L 106.249408 -78.308885 
L 107.36581 -77.809022 
L 108.482211 -77.240965 
L 109.598613 -76.678487 
L 110.715014 -76.134976 
L 111.831416 -75.578599 
L 112.947817 -75.029781 
L 114.064219 -74.466386 
L 115.18062 -73.898718 
L 116.297022 -73.320887 
L 117.413423 -72.746692 
L 118.529825 -72.166101 
L 119.646226 -71.582775 
L 120.762628 -71.016617 
L 121.879029 -70.454922 
L 122.995431 -69.882356 
L 124.111832 -69.309148 
L 125.228234 -68.731788 
L 126.344635 -68.13442 
L 127.461037 -67.517098 
L 128.577438 -66.937682 
L 129.69384 -66.341047 
L 130.810241 -65.735178 
L 131.926643 -65.136167 
L 133.043045 -64.533267 
L 134.159446 -63.917196 
L 135.275848 -63.347436 
L 136.392249 -62.777677 
L 137.508651 -62.207918 
L 138.625052 -61.630074 
L 139.741454 -61.048523 
L 140.857855 -60.445721 
L 141.974257 -59.853679 
L 143.090658 -59.262204 
L 144.20706 -58.67073 
L 145.323461 -58.092539 
L 146.439863 -57.490881 
L 147.556264 -56.893333 
L 148.672666 -56.293543 
L 149.789067 -55.693981 
L 150.905469 -55.118726 
L 150.905469 -62.816198 
L 150.905469 -62.816198 
L 149.789067 -63.261926 
L 148.672666 -63.70735 
L 147.556264 -64.152773 
L 146.439863 -64.583807 
L 145.323461 -65.002921 
L 144.20706 -65.437143 
L 143.090658 -65.883161 
L 141.974257 -66.328878 
L 140.857855 -66.774533 
L 139.741454 -67.206459 
L 138.625052 -67.633642 
L 137.508651 -68.061551 
L 136.392249 -68.504905 
L 135.275848 -68.960888 
L 134.159446 -69.416544 
L 133.043045 -69.855277 
L 131.926643 -70.283057 
L 130.810241 -70.711804 
L 129.69384 -71.136315 
L 128.577438 -71.567804 
L 127.461037 -72.013235 
L 126.344635 -72.439064 
L 125.228234 -72.877787 
L 124.111832 -73.360487 
L 122.995431 -73.83589 
L 121.879029 -74.291525 
L 120.762628 -74.739648 
L 119.646226 -75.199559 
L 118.529825 -75.641675 
L 117.413423 -76.111397 
L 116.297022 -76.596698 
L 115.18062 -77.072778 
L 114.064219 -77.55821 
L 112.947817 -78.040598 
L 111.831416 -78.519467 
L 110.715014 -78.947005 
L 109.598613 -79.389158 
L 108.482211 -79.887599 
L 107.36581 -80.380895 
L 106.249408 -80.902844 
L 105.133007 -81.44744 
L 104.016605 -81.969901 
L 102.900204 -82.494092 
L 101.783802 -83.021765 
L 100.667401 -83.538715 
L 99.550999 -84.088851 
L 98.434598 -84.641537 
L 97.318196 -85.166701 
L 96.201795 -85.711978 
L 95.085393 -86.286052 
L 93.968991 -86.833988 
L 92.85259 -87.379495 
L 91.736188 -87.93094 
L 90.619787 -88.484208 
L 89.503385 -89.020587 
L 88.386984 -89.589444 
L 87.270582 -90.174099 
L 86.154181 -90.737118 
L 85.037779 -91.357589 
L 83.921378 -91.912028 
L 82.804976 -92.474756 
L 81.688575 -93.03309 
L 80.572173 -93.606876 
L 79.455772 -94.195106 
L 78.33937 -94.789409 
L 77.222969 -95.383603 
L 76.106567 -95.967229 
L 74.990166 -96.541764 
L 73.873764 -97.116299 
L 72.757363 -97.690834 
L 71.640961 -98.267791 
L 70.52456 -98.849997 
L 69.408158 -99.43979 
L 68.291757 -100.043987 
L 67.175355 -100.643394 
L 66.058954 -101.217653 
L 64.942552 -101.787529 
L 63.826151 -102.366341 
L 62.709749 -102.962062 
L 61.593348 -103.551276 
L 60.476946 -104.148942 
L 59.360545 -104.763625 
L 58.244143 -105.376496 
L 57.127741 -105.947825 
L 56.01134 -106.551253 
L 54.894938 -107.113537 
L 53.778537 -107.675821 
L 52.662135 -108.260535 
L 51.545734 -108.849153 
L 50.429332 -109.437227 
L 49.312931 -110.025115 
L 48.196529 -110.613003 
L 47.080128 -111.200891 
L 45.963726 -111.788779 
L 44.847325 -112.376667 
L 43.730923 -112.974911 
L 42.614522 -113.583657 
L 41.49812 -114.192403 
L 40.381719 -114.801149 
z
" id="m7b130c901a" style="stroke:#000000;stroke-opacity:0.15;stroke-width:0.3;"/>
    </defs>
    <g clip-path="url(#p93fbd4419a)">
     <use style="fill:#4c72b0;fill-opacity:0.15;stroke:#000000;stroke-opacity:0.15;stroke-width:0.3;" x="0.0" xlink:href="#m7b130c901a" y="167.60625"/>
    </g>
   </g>
   <g id="line2d_29">
    <path clip-path="url(#p93fbd4419a)" d="M 40.381719 57.846635 
L 41.49812 58.35838 
L 42.614522 58.870125 
L 43.730923 59.38187 
L 44.847325 59.893615 
L 45.963726 60.40536 
L 47.080128 60.917105 
L 48.196529 61.42885 
L 49.312931 61.940595 
L 50.429332 62.45234 
L 51.545734 62.964084 
L 52.662135 63.475829 
L 53.778537 63.987574 
L 54.894938 64.499319 
L 56.01134 65.011064 
L 57.127741 65.522809 
L 58.244143 66.034554 
L 59.360545 66.546299 
L 60.476946 67.058044 
L 61.593348 67.569789 
L 62.709749 68.081533 
L 63.826151 68.593278 
L 64.942552 69.105023 
L 66.058954 69.616768 
L 67.175355 70.128513 
L 68.291757 70.640258 
L 69.408158 71.152003 
L 70.52456 71.663748 
L 71.640961 72.175493 
L 72.757363 72.687237 
L 73.873764 73.198982 
L 74.990166 73.710727 
L 76.106567 74.222472 
L 77.222969 74.734217 
L 78.33937 75.245962 
L 79.455772 75.757707 
L 80.572173 76.269452 
L 81.688575 76.781197 
L 82.804976 77.292942 
L 83.921378 77.804686 
L 85.037779 78.316431 
L 86.154181 78.828176 
L 87.270582 79.339921 
L 88.386984 79.851666 
L 89.503385 80.363411 
L 90.619787 80.875156 
L 91.736188 81.386901 
L 92.85259 81.898646 
L 93.968991 82.410391 
L 95.085393 82.922135 
L 96.201795 83.43388 
L 97.318196 83.945625 
L 98.434598 84.45737 
L 99.550999 84.969115 
L 100.667401 85.48086 
L 101.783802 85.992605 
L 102.900204 86.50435 
L 104.016605 87.016095 
L 105.133007 87.52784 
L 106.249408 88.039584 
L 107.36581 88.551329 
L 108.482211 89.063074 
L 109.598613 89.574819 
L 110.715014 90.086564 
L 111.831416 90.598309 
L 112.947817 91.110054 
L 114.064219 91.621799 
L 115.18062 92.133544 
L 116.297022 92.645289 
L 117.413423 93.157033 
L 118.529825 93.668778 
L 119.646226 94.180523 
L 120.762628 94.692268 
L 121.879029 95.204013 
L 122.995431 95.715758 
L 124.111832 96.227503 
L 125.228234 96.739248 
L 126.344635 97.250993 
L 127.461037 97.762737 
L 128.577438 98.274482 
L 129.69384 98.786227 
L 130.810241 99.297972 
L 131.926643 99.809717 
L 133.043045 100.321462 
L 134.159446 100.833207 
L 135.275848 101.344952 
L 136.392249 101.856697 
L 137.508651 102.368442 
L 138.625052 102.880186 
L 139.741454 103.391931 
L 140.857855 103.903676 
L 141.974257 104.415421 
L 143.090658 104.927166 
L 144.20706 105.438911 
L 145.323461 105.950656 
L 146.439863 106.462401 
L 147.556264 106.974146 
L 148.672666 107.485891 
L 149.789067 107.997635 
L 150.905469 108.50938 
" style="fill:none;stroke:#4c72b0;stroke-linecap:round;stroke-width:2.625;"/>
   </g>
   <g id="patch_3">
    <path d="M 40.381719 129.201094 
L 150.905469 129.201094 
" style="fill:none;stroke:#cccccc;stroke-linecap:square;stroke-linejoin:miter;"/>
   </g>
   <g id="patch_4">
    <path d="M 40.381719 129.201094 
L 40.381719 11.772656 
" style="fill:none;stroke:#cccccc;stroke-linecap:square;stroke-linejoin:miter;"/>
   </g>
  </g>
 </g>
 <defs>
  <clipPath id="p93fbd4419a">
   <rect height="117.4284375" width="110.52375" x="40.38171875" y="11.77265625"/>
  </clipPath>
 </defs>
</svg>
